<svg width="24" height="24" viewBox="0 0 24 24" fill="none" xmlns="http://www.w3.org/2000/svg">
<path d="M22.3125 18H7.875V17.3125C7.875 16.9344 7.56563 16.625 7.1875 16.625H5.8125C5.43437 16.625 5.125 16.9344 5.125 17.3125V18H1.6875C1.30937 18 1 18.3094 1 18.6875V20.0625C1 20.4406 1.30937 20.75 1.6875 20.75H5.125V21.4375C5.125 21.8156 5.43437 22.125 5.8125 22.125H7.1875C7.56563 22.125 7.875 21.8156 7.875 21.4375V20.75H22.3125C22.6906 20.75 23 20.4406 23 20.0625V18.6875C23 18.3094 22.6906 18 22.3125 18ZM22.3125 11.125H18.875V10.4375C18.875 10.0594 18.5656 9.75 18.1875 9.75H16.8125C16.4344 9.75 16.125 10.0594 16.125 10.4375V11.125H1.6875C1.30937 11.125 1 11.4344 1 11.8125V13.1875C1 13.5656 1.30937 13.875 1.6875 13.875H16.125V14.5625C16.125 14.9406 16.4344 15.25 16.8125 15.25H18.1875C18.5656 15.25 18.875 14.9406 18.875 14.5625V13.875H22.3125C22.6906 13.875 23 13.5656 23 13.1875V11.8125C23 11.4344 22.6906 11.125 22.3125 11.125ZM22.3125 4.25H13.375V3.5625C13.375 3.18437 13.0656 2.875 12.6875 2.875H11.3125C10.9344 2.875 10.625 3.18437 10.625 3.5625V4.25H1.6875C1.30937 4.25 1 4.55937 1 4.9375V6.3125C1 6.69063 1.30937 7 1.6875 7H10.625V7.6875C10.625 8.06563 10.9344 8.375 11.3125 8.375H12.6875C13.0656 8.375 13.375 8.06563 13.375 7.6875V7H22.3125C22.6906 7 23 6.69063 23 6.3125V4.9375C23 4.55937 22.6906 4.25 22.3125 4.25Z" fill="white"/>
</svg>
