<svg width="29" height="29" viewBox="0 0 29 29" fill="none" xmlns="http://www.w3.org/2000/svg">
<path fill-rule="evenodd" clip-rule="evenodd" d="M14.9308 10.1527C14.9308 12.458 13.0555 14.3333 10.7503 14.3333C8.44499 14.3333 6.56972 12.458 6.56972 10.1527C6.56972 7.84745 8.44499 5.97217 10.7503 5.97217C13.0555 5.97217 14.9308 7.84745 14.9308 10.1527ZM12.5419 10.1527C12.5419 9.16133 11.7417 8.36106 10.7503 8.36106C9.75888 8.36106 8.9586 9.16133 8.9586 10.1527C8.9586 11.1441 9.75888 11.9444 10.7503 11.9444C11.7417 11.9444 12.5419 11.1441 12.5419 10.1527ZM10.7503 16.4236C7.95527 16.4236 2.38916 17.8211 2.38916 20.6041V21.4999C2.38916 22.1569 2.92666 22.6944 3.5836 22.6944H17.9169C18.5739 22.6944 19.1114 22.1569 19.1114 21.4999V20.6041C19.1114 17.8211 13.5453 16.4236 10.7503 16.4236ZM10.7501 18.8124C8.61203 18.8124 6.18731 19.6127 5.18397 20.3055H16.3162C15.3129 19.6127 12.8881 18.8124 10.7501 18.8124ZM19.1592 16.4952C20.5448 17.4986 21.5003 18.8363 21.5003 20.6041V22.6944H25.0837C25.7406 22.6944 26.2781 22.1569 26.2781 21.4999V20.6041C26.2781 18.1913 22.0975 16.8177 19.1592 16.4952ZM22.0975 10.1527C22.0975 12.458 20.2222 14.3333 17.9169 14.3333C17.2719 14.3333 16.6747 14.178 16.1253 13.9152C16.8778 12.8522 17.3197 11.5502 17.3197 10.1527C17.3197 8.75522 16.8778 7.45328 16.1253 6.39022C16.6747 6.12745 17.2719 5.97217 17.9169 5.97217C20.2222 5.97217 22.0975 7.84745 22.0975 10.1527Z" fill="#5F5F5F"/>
</svg>
