<svg width="262" height="177" viewBox="0 0 262 177" fill="none" xmlns="http://www.w3.org/2000/svg">
<g clip-path="url(#clip0_1378:4160)">
<path d="M108.011 39.5052C108.014 44.4225 106.828 49.2677 104.552 53.6269C102.277 57.986 98.9798 61.7296 94.9432 64.5379C93.8063 65.3336 92.6156 66.0497 91.3798 66.6811C90.9697 66.8915 90.5568 67.0914 90.1361 67.2807C89.7573 67.4543 89.3761 67.6173 88.9894 67.7725C84.1946 69.7139 78.986 70.4088 73.85 69.7922C72.9611 69.687 72.0836 69.5423 71.2175 69.3582C71.1808 69.3504 71.1412 69.3425 71.1045 69.3346C69.2907 68.951 67.5166 68.399 65.8054 67.6857C60.7039 65.568 56.273 62.1051 52.9855 57.6663C49.698 53.2276 47.6772 47.9796 47.1388 42.4823C46.6004 36.985 47.5646 31.4446 49.9284 26.4524C52.2922 21.4601 55.967 17.2033 60.5607 14.1361C65.1545 11.0688 70.4947 9.30625 76.0117 9.03643C81.5287 8.76661 87.0155 9.99965 91.8866 12.604C96.7577 15.2083 100.83 19.0863 103.67 23.824C106.51 28.5618 108.01 33.9816 108.011 39.5052V39.5052Z" fill="#607EF5"/>
<path d="M83.1224 33.8118C83.0961 33.7802 83.0672 33.7513 83.0383 33.7224C81.4084 32.0767 79.1951 31.1403 76.879 31.1167C74.5629 31.0931 72.331 31.984 70.6679 33.5961C70.6495 33.6119 70.6337 33.6277 70.618 33.6435C70.5969 33.6619 70.5785 33.6803 70.56 33.6987C69.741 34.5157 69.0913 35.4863 68.6482 36.5549C68.205 37.6235 67.9772 38.7691 67.9777 39.926V45.4485C67.9781 45.7622 68.103 46.0629 68.3248 46.2847C68.5466 46.5065 68.8473 46.6314 69.1611 46.6318H84.4137C84.7274 46.6314 85.0281 46.5065 85.2499 46.2847C85.4717 46.0629 85.5966 45.7622 85.597 45.4485V39.926C85.5992 37.6435 84.7115 35.4502 83.1224 33.8118V33.8118Z" fill="#2F2E41"/>
<path d="M77.1408 46.5771C80.708 46.5771 83.5998 43.6853 83.5998 40.1182C83.5998 36.551 80.708 33.6592 77.1408 33.6592C73.5737 33.6592 70.6819 36.551 70.6819 40.1182C70.6819 43.6853 73.5737 46.5771 77.1408 46.5771Z" fill="#FFB7B7"/>
<path d="M83.9297 39.5683L83.1671 34.2404C83.1436 34.0769 83.0601 33.9279 82.933 33.8223C82.8902 33.7879 82.8433 33.7588 82.7936 33.7355C78.8884 31.9078 74.9281 31.9078 71.0228 33.7303C70.9707 33.7544 70.922 33.7853 70.8781 33.8223C70.8624 33.8355 70.8467 33.8512 70.8309 33.867C70.7265 33.9748 70.6616 34.1148 70.6467 34.2641L70.1366 39.5999C70.128 39.6911 70.1385 39.7832 70.1675 39.8701C70.1965 39.957 70.2433 40.037 70.3049 40.1048C70.4042 40.2141 70.5378 40.2865 70.6836 40.3099C70.719 40.3175 70.7552 40.321 70.7914 40.3204H72.0853C72.2103 40.32 72.3328 40.2842 72.4384 40.2172C72.544 40.1502 72.6285 40.0547 72.6822 39.9418L73.2423 38.7426C73.2782 38.6649 73.3384 38.601 73.4139 38.5606C73.4894 38.5203 73.576 38.5057 73.6605 38.5191C73.7451 38.5325 73.8229 38.5731 73.8822 38.6348C73.9415 38.6965 73.9791 38.7759 73.9891 38.8609L74.0996 39.7445C74.1201 39.9033 74.1975 40.0492 74.3175 40.1551C74.4375 40.261 74.5918 40.3198 74.7519 40.3204H83.2801C83.3917 40.321 83.5015 40.292 83.5983 40.2363C83.6657 40.1996 83.7262 40.1516 83.7772 40.0943C83.8388 40.0227 83.8843 39.9387 83.9107 39.8479C83.937 39.7572 83.9435 39.6618 83.9297 39.5683V39.5683Z" fill="#2F2E41"/>
<path d="M93.1128 58.4106L94.9431 64.5379C93.8062 65.3336 92.6155 66.0497 91.3797 66.6812C90.9696 66.8915 90.5567 67.0914 90.136 67.2807L88.2398 59.1522L87.5035 55.9991L92.2371 55.4731L93.1128 58.4106Z" fill="#FFB7B7"/>
<path d="M71.3306 57.3929L71.1728 65.6713L71.1045 69.3346C69.2907 68.951 67.5166 68.399 65.8054 67.6857L66.434 59.8438L66.5918 57.8662L71.3306 57.3929Z" fill="#FFB7B7"/>
<path d="M93.1128 58.4106L88.3582 59.1232L88.4161 59.9043L88.9893 67.7725C84.1945 69.7139 78.9859 70.4088 73.8498 69.7922C72.961 69.687 72.0835 69.5423 71.2174 69.3582C71.6066 67.7225 71.9432 66.2499 71.5277 65.9606C71.4025 65.8729 71.2839 65.7762 71.1727 65.6713C69.2345 63.8226 69.9499 59.6492 69.9499 59.6492L66.4339 59.8438L65.2163 59.9121C65.2163 59.9121 65.7423 51.4969 68.109 51.4969H71.0018L84.9395 50.182C84.9395 50.182 88.8841 48.8671 89.9361 50.708C90.4883 51.6731 91.4718 53.7191 92.2845 55.4494C93.0208 57.022 93.6177 58.3343 93.6177 58.3343L93.1128 58.4106Z" fill="#2F2E41"/>
<path d="M215.829 39.8412C215.78 44.6581 214.589 49.3947 212.354 53.6622C210.119 57.9296 206.905 61.6064 202.974 64.3906C202.905 64.438 202.834 64.4879 202.763 64.5379C202.69 64.5905 202.613 64.6431 202.537 64.6931C202.095 64.9981 201.645 65.29 201.185 65.5688C200.539 65.9632 199.877 66.334 199.2 66.6812C199.179 66.6917 199.155 66.7022 199.134 66.7127C198.745 66.9126 198.352 67.1019 197.956 67.2807C197.943 67.286 197.932 67.2913 197.919 67.2965C197.827 67.3386 197.73 67.3833 197.635 67.4227C196.902 67.7488 196.152 68.046 195.389 68.309C194.74 68.5378 194.081 68.7429 193.412 68.9243C192.044 69.3016 190.651 69.5811 189.244 69.7606C188.044 69.915 186.835 69.9975 185.625 70.0078C185.525 70.0104 185.425 70.0104 185.325 70.0104C184.665 70.0104 184.008 69.9894 183.358 69.9473C182.79 69.9105 182.228 69.8605 181.67 69.7922C180.81 69.6896 179.961 69.5529 179.124 69.374C179.088 69.3688 179.051 69.3609 179.014 69.353C178.985 69.3477 178.954 69.3398 178.925 69.3346C178.083 69.1584 177.255 68.9428 176.442 68.6956C175.677 68.4641 174.926 68.2029 174.188 67.9119C173.999 67.8383 173.812 67.7646 173.626 67.6857C173.16 67.4911 172.7 67.2886 172.248 67.0704C172.116 67.0099 171.987 66.9468 171.858 66.8837C171.422 66.6707 170.991 66.4471 170.57 66.2104C170.062 65.9291 169.563 65.6336 169.074 65.3242C168.456 64.935 167.851 64.5248 167.264 64.0909C162.054 60.2628 158.195 54.8783 156.243 48.7144C154.292 42.5506 154.349 35.9261 156.407 29.7969C158.464 23.6677 162.416 18.3508 167.692 14.6134C172.968 10.876 179.294 8.91137 185.759 9.00304C202.487 9.23539 216.009 23.1132 215.829 39.8412Z" fill="#607EF5"/>
<path d="M178.925 69.3345C178.083 69.1584 177.255 68.9427 176.442 68.6955L179.232 51.3943L182.122 51.3049L187.363 51.1393L190.051 51.0551C190.051 51.0551 191.958 59.4335 193.412 68.9243C192.044 69.3016 190.651 69.581 189.244 69.7606C188.044 69.9149 186.835 69.9975 185.625 70.0078C185.525 70.0104 185.425 70.0104 185.325 70.0104C184.665 70.0104 184.008 69.9894 183.358 69.9473C182.79 69.9105 182.228 69.8605 181.67 69.7921C180.81 69.6896 179.961 69.5528 179.124 69.374C179.088 69.3687 179.051 69.3608 179.014 69.353C178.985 69.3477 178.954 69.3398 178.925 69.3345Z" fill="#CBCBCB"/>
<path d="M179.124 69.3741C179.088 69.3688 179.051 69.3609 179.014 69.353C178.985 69.3478 178.953 69.3399 178.925 69.3346C178.083 69.1584 177.255 68.9428 176.442 68.6956C175.677 68.4642 174.925 68.2029 174.188 67.9119C173.999 67.8383 173.812 67.7647 173.625 67.6858C173.16 67.4912 172.7 67.2887 172.248 67.0704C172.116 67.0099 171.987 66.9468 171.858 66.8837L171.627 53.9295L178.727 50.8869C178.727 50.8869 178.751 51.0762 182.122 51.305C182.764 53.3983 179.124 69.3741 179.124 69.3741Z" fill="#2F2E41"/>
<path d="M200.347 53.3167L199.008 60.3513L199.134 66.7127C198.745 66.9126 198.352 67.1019 197.956 67.2807C197.943 67.286 197.932 67.2913 197.919 67.2965C197.827 67.3386 197.73 67.3833 197.635 67.4228C196.902 67.7488 196.152 68.046 195.389 68.309C194.74 68.5378 194.081 68.7429 193.412 68.9244C192.044 69.3016 190.651 69.5811 189.244 69.7606C188.043 69.915 186.835 69.9975 185.625 70.0078L185.486 58.734C185.191 55.0997 186.167 52.6961 187.363 51.1393C193.741 50.2873 193.599 50.211 193.599 50.211L200.36 53.2536L200.347 53.3167Z" fill="#2F2E41"/>
<path d="M174.67 54.9445L174.188 67.9119C173.999 67.8382 173.812 67.7646 173.625 67.6857C173.16 67.4911 172.7 67.2886 172.248 67.0703C172.116 67.0099 171.987 66.9467 171.858 66.8836C171.422 66.6706 170.991 66.4471 170.57 66.2104C170.062 65.929 169.563 65.6336 169.073 65.3242L171.627 53.9294L174.67 54.9445Z" fill="#2F2E41"/>
<path d="M202.974 64.3906C202.905 64.438 202.834 64.4879 202.763 64.5379C202.69 64.5905 202.614 64.6431 202.537 64.6931C202.095 64.9981 201.645 65.29 201.186 65.5688C200.539 65.9632 199.877 66.334 199.2 66.6812C199.179 66.6917 199.155 66.7022 199.134 66.7127C198.733 66.9186 198.329 67.1134 197.92 67.297L197.919 67.2965L197.438 54.2845L200.347 53.3167L200.481 53.272L202.974 64.3906Z" fill="#2F2E41"/>
<path d="M192.584 41.275C193.752 37.2886 191.477 33.112 187.5 31.9462C183.524 30.7805 179.354 33.0671 178.185 37.0535C177.016 41.0399 179.292 45.2165 183.268 46.3822C187.244 47.5479 191.415 45.2613 192.584 41.275Z" fill="#9F616A"/>
<path d="M177.828 41.0502V38.1229C177.828 38.1229 175.468 35.3427 178.064 34.6423C178.064 34.6423 178.773 27.6388 184.91 30.9071C184.91 30.9071 193.409 29.5064 192.464 34.4089C192.464 34.4089 194.589 33.129 193.881 36.3973L192.511 41.662C192.511 41.662 193.173 38.1843 191.048 37.7174L189.868 37.017C189.868 37.017 186.563 40.2853 181.605 36.3167C181.605 36.3167 179.481 35.8096 179.717 37.9106C179.953 40.0117 177.828 41.0502 177.828 41.0502Z" fill="#2F2E41"/>
<path d="M161.92 131.547C161.924 136.464 160.738 141.309 158.462 145.669C156.187 150.028 152.89 153.771 148.853 156.58C148.78 156.632 148.703 156.685 148.627 156.735C148.185 157.04 147.735 157.332 147.275 157.61C146.628 158.005 145.967 158.376 145.29 158.723C144.88 158.933 144.467 159.133 144.046 159.322C143.941 159.37 143.833 159.42 143.725 159.464C142.991 159.79 142.242 160.088 141.479 160.351C139.487 161.049 137.427 161.536 135.334 161.802C134.034 161.969 132.725 162.053 131.415 162.052C130.755 162.052 130.098 162.031 129.448 161.989C128.88 161.952 128.317 161.902 127.76 161.834C126.863 161.726 125.977 161.581 125.104 161.395C125.075 161.389 125.043 161.381 125.014 161.376C123.201 160.993 121.427 160.441 119.715 159.727C119.25 159.533 118.79 159.33 118.337 159.112C117.767 158.844 117.208 158.557 116.66 158.252C111.951 155.651 108.014 151.85 105.248 147.237C102.482 142.623 100.985 137.36 100.909 131.981C100.832 126.602 102.18 121.298 104.815 116.608C107.449 111.918 111.277 108.008 115.91 105.274C120.543 102.541 125.817 101.081 131.196 101.042C136.575 101.004 141.869 102.389 146.541 105.056C151.212 107.724 155.095 111.579 157.796 116.231C160.497 120.884 161.92 126.167 161.92 131.547V131.547Z" fill="#607EF5"/>
<path d="M130.577 139.065C134.339 139.065 137.389 136.015 137.389 132.253C137.389 128.491 134.339 125.441 130.577 125.441C126.815 125.441 123.766 128.491 123.766 132.253C123.766 136.015 126.815 139.065 130.577 139.065Z" fill="#FFB8B8"/>
<path d="M127.76 161.834C126.863 161.726 125.977 161.581 125.104 161.395L125.932 142.755L126.051 142.631L127.747 140.84H133.14L135.131 142.768L135.299 142.934L139.557 147.012L141.479 160.351C139.488 161.049 137.428 161.536 135.334 161.802C134.034 161.969 132.725 162.053 131.415 162.052C130.755 162.052 130.098 162.031 129.448 161.989C128.88 161.952 128.318 161.902 127.76 161.834Z" fill="#CBCBCB"/>
<path d="M118.338 159.112C117.767 158.844 117.208 158.557 116.66 158.252C116.605 153.203 116.568 149.85 116.568 149.85L117.209 149.458C117.217 149.454 117.225 149.451 117.233 149.448L124.515 145.024L126.043 142.542L126.051 142.631L126.5 147.864C127.855 152.487 128.84 157.21 129.448 161.989C128.88 161.952 128.318 161.902 127.76 161.834C126.863 161.726 125.977 161.581 125.104 161.395C125.075 161.389 125.043 161.381 125.015 161.376C123.201 160.993 121.427 160.441 119.716 159.727C119.25 159.533 118.79 159.33 118.338 159.112Z" fill="#2F2E41"/>
<path d="M141.479 160.351C139.487 161.049 137.427 161.536 135.334 161.802C135.043 160.105 134.937 158.381 135.015 156.661C135.583 147.58 134.274 142.542 134.842 142.542L135.131 142.768L138.705 145.592L143.409 147.317H143.412L146.649 148.503L147.22 148.714V148.985C147.223 149.921 147.228 153.198 147.275 157.61C146.628 158.005 145.967 158.376 145.29 158.723C144.88 158.933 144.467 159.133 144.046 159.322C143.941 159.37 143.833 159.42 143.725 159.464C142.991 159.79 142.242 160.088 141.479 160.351Z" fill="#2F2E41"/>
<path d="M124.133 134.384C124.133 134.384 124.712 133.368 124.577 129.972C124.443 126.577 129.613 128.497 133.933 128.173C138.254 127.85 137.339 133.842 137.339 133.842C137.339 133.842 137.651 133.486 138.318 130.594C138.986 127.702 137.47 124.819 137.47 124.819C137.024 121.78 134.619 122.754 134.619 122.754C135.777 123.205 135.555 124.169 135.555 124.169C134.575 122.45 132.17 123.424 132.17 123.424C128.962 121.412 125.711 124.062 125.711 124.062C121.836 124.942 124.109 128.023 124.109 128.023C120.212 129.992 124.133 134.384 124.133 134.384Z" fill="#2F2E41"/>
<path d="M113.354 156.132C113.454 153.821 113.499 152.33 113.446 152.122C113.175 151.039 116.873 149.587 117.209 149.458C117.217 149.454 117.225 149.451 117.233 149.448L117.985 149.85L118.338 159.112C117.767 158.844 117.208 158.557 116.66 158.252C115.513 157.618 114.409 156.91 113.354 156.132V156.132Z" fill="#2F2E41"/>
<path d="M147.275 157.61C146.629 158.005 145.967 158.376 145.29 158.723C144.88 158.933 144.467 159.133 144.046 159.322C143.941 159.37 143.833 159.42 143.725 159.464L142.542 147.78L143.233 147.275C143.233 147.275 143.297 147.291 143.41 147.317H143.412C143.967 147.454 145.671 147.907 146.65 148.504C146.868 148.627 147.061 148.79 147.22 148.985C147.317 149.101 147.365 149.25 147.354 149.4C147.323 149.705 147.849 152.598 148.627 156.735C148.185 157.04 147.735 157.332 147.275 157.61Z" fill="#2F2E41"/>
<path d="M88.5545 137.762H77.2423V87.0481H77.7683V137.236H88.5545V137.762Z" fill="#FAAA5F"/>
<path d="M185.59 137.762H174.278V137.236H185.065V86.5779H185.59V137.762Z" fill="#FAAA5F"/>
<path d="M185.325 75.8899C189.165 75.8899 192.278 72.7773 192.278 68.9378C192.278 65.0982 189.165 61.9857 185.325 61.9857C181.486 61.9857 178.373 65.0982 178.373 68.9378C178.373 72.7773 181.486 75.8899 185.325 75.8899Z" fill="#FAAA5F"/>
<path d="M184.663 71.8725L182.582 69.197L183.792 68.2558L184.777 69.5226L188.106 66.0092L189.219 67.0635L184.663 71.8725Z" fill="white"/>
<path d="M77.5052 76.4324C81.3448 76.4324 84.4573 73.3198 84.4573 69.4803C84.4573 65.6408 81.3448 62.5282 77.5052 62.5282C73.6657 62.5282 70.5531 65.6408 70.5531 69.4803C70.5531 73.3198 73.6657 76.4324 77.5052 76.4324Z" fill="#FAAA5F"/>
<path d="M76.8428 72.4151L74.7618 69.7396L75.9721 68.7984L76.9572 70.0651L80.2856 66.5518L81.3986 67.606L76.8428 72.4151Z" fill="white"/>
<path d="M131.415 169C135.255 169 138.367 165.887 138.367 162.048C138.367 158.208 135.255 155.096 131.415 155.096C127.576 155.096 124.463 158.208 124.463 162.048C124.463 165.887 127.576 169 131.415 169Z" fill="#FAAA5F"/>
<path d="M130.753 164.983L128.672 162.307L129.882 161.366L130.867 162.633L134.196 159.119L135.309 160.174L130.753 164.983Z" fill="white"/>
</g>
<defs>
<clipPath id="clip0_1378:4160">
<rect width="168.831" height="160" fill="white" transform="translate(47 9)"/>
</clipPath>
</defs>
</svg>
