<svg width="457" height="336" viewBox="0 0 457 336" fill="none" xmlns="http://www.w3.org/2000/svg">
<g clip-path="url(#clip0_1303:4061)">
<path d="M173.46 63.6719L169.883 64.7736L167.456 59.1879L162.039 60.1616L159.561 56.267L157.593 57.5225L160.915 62.7238L166.05 61.8014L168.554 67.6177L173.945 65.9523L173.46 63.6719Z" fill="#50BFA5"/>
<path d="M403.13 264.475L399.553 265.577L397.152 259.992L391.709 260.965L389.231 257.071L387.264 258.326L390.585 263.527L395.721 262.605L398.225 268.421L403.616 266.756L403.13 264.475Z" fill="#50BFA5"/>
<path d="M151.385 330.582C151.385 330.582 132.273 265.628 130.74 251.305C129.207 236.982 139.887 241.415 139.887 241.415C139.887 241.415 130.893 214.102 137.409 207.619C143.898 201.137 149.775 213.23 149.775 213.23C149.775 213.23 151.742 180.075 158.666 180.075C171.569 180.049 171.314 216.228 171.314 216.228C171.314 216.228 174.61 202.059 181.534 205.954C191.958 211.796 177.012 240.185 177.012 240.185C177.012 240.185 190.298 240.185 194.973 246.924C203.328 258.941 151.385 330.582 151.385 330.582Z" fill="#50BFA5"/>
<path d="M157.644 321.972C157.644 321.972 102.558 312.723 90.5751 302.935C78.5921 293.147 90.4474 288.74 90.4474 288.74C90.4474 288.74 62.7766 274.519 63.0832 264.834C63.4153 255.149 77.1613 260.068 77.1613 260.068C77.1613 260.068 53.834 233.421 59.3528 228.348C69.624 218.919 96.605 246.642 96.605 246.642C96.605 246.642 88.6078 233.447 97.0393 231.371C109.763 228.22 119.14 260.735 119.14 260.735C119.14 260.735 116.764 247.898 125.528 249.614C141.216 252.663 157.644 321.972 157.644 321.972Z" fill="#50BFA5"/>
<path d="M125.502 249.614C116.713 248.026 119.115 260.735 119.115 260.735C119.115 260.735 109.738 228.22 97.0139 231.371C88.5823 233.447 96.5795 246.642 96.5795 246.642C96.5795 246.642 69.6241 218.919 59.3274 228.348L157.44 321.998C155.703 313.056 140.219 252.279 125.502 249.614Z" fill="#3C8F7C"/>
<path d="M173.307 329.608C173.307 329.608 144.282 300.014 129.693 296.939C115.078 293.864 117.71 304.293 117.71 304.293C117.71 304.293 88.7102 278.875 81.9906 285.025C75.2709 291.174 82.5271 297.144 82.5271 297.144C82.5271 297.144 58.3822 292.865 54.9329 300.808C49.6185 313.03 89.3235 319.666 89.3235 319.666C89.3235 319.666 72.6903 320.819 76.5484 328.48C82.3738 339.985 173.307 329.608 173.307 329.608Z" fill="#355389"/>
<path d="M54.9331 300.757C58.3824 292.814 82.5273 297.093 82.5273 297.093C82.5273 297.093 75.271 291.148 81.9907 284.973C88.7104 278.824 116.79 300.783 116.79 300.783C116.79 300.783 110.173 288.099 124.787 291.174C139.402 294.249 173.307 329.582 173.307 329.582L54.9331 300.757Z" fill="#466EB6"/>
<path d="M219.501 24.4182C209.741 26.0324 206.828 38.8949 214.953 44.6343C216.41 45.6592 217.432 47.2222 217.84 48.9645L219.322 54.9346C219.731 56.5744 221.341 57.6506 223.002 57.3687L226.706 56.7538C228.367 56.4719 229.568 54.9602 229.415 53.2691C228.904 47.0941 228.265 44.8649 230.258 42.0977C236.109 34.0522 229.261 22.804 219.501 24.4182Z" fill="#F7CC7F"/>
<path d="M220.498 50.5531C219.859 45.2749 218.965 39.6891 218.658 38.1005C213.063 38.408 215.183 32.4892 217.764 34.8977C218.505 35.5895 218.837 36.5119 219.067 37.5368C220.932 37.3575 222.746 36.845 224.407 35.9739C224.33 34.6671 224.177 33.6935 224.56 32.8479C225.097 31.5924 226.707 31.2337 227.345 32.4636C227.601 32.9248 227.626 33.5141 227.447 34.0009C227.064 35.0515 225.94 35.7433 224.969 36.2813C225.276 40.4834 225.659 44.7112 226.196 48.8876L225.659 48.9645C225.148 44.8649 224.739 40.6884 224.458 36.5632C222.823 37.3831 221.034 37.8956 219.195 38.0749C219.578 40.0991 220.421 45.5311 221.009 50.5019L220.498 50.5531ZM216.001 36.845C216.486 37.3831 217.33 37.6137 218.556 37.5625C218.352 36.6657 218.045 35.8458 217.406 35.2821C216.027 34.0009 215.183 35.9482 216.001 36.845ZM225.046 33.0529C224.739 33.7447 224.867 34.6415 224.918 35.692C225.71 35.2308 226.655 34.6671 226.936 33.8216C227.141 33.2323 226.911 32.4123 226.323 32.2586C226.272 32.2586 225.276 32.5661 225.046 33.0529Z" fill="#FAE0B2"/>
<path d="M217.815 48.8108C217.84 48.8621 217.84 48.9133 217.866 48.9646L219.348 54.9346C219.757 56.5744 221.366 57.6506 223.027 57.3687L226.732 56.7538C228.393 56.4719 229.594 54.9602 229.44 53.2691C229.21 50.5275 228.955 48.5546 228.929 46.966L217.815 48.8108Z" fill="#96D9C9"/>
<path d="M212.271 19.9598L209.333 14.6047C209.052 14.0923 209.23 13.4261 209.767 13.1442C210.278 12.8624 210.942 13.0417 211.223 13.5798L214.136 18.9349C214.417 19.4474 214.238 20.1136 213.702 20.3954C213.191 20.6772 212.552 20.4723 212.271 19.9598Z" fill="#FAE0B2"/>
<path d="M205.883 32.8992L199.521 32.3355C198.933 32.2843 198.499 31.7718 198.55 31.1825C198.601 30.5932 199.112 30.1576 199.7 30.2089L206.062 30.7726C206.65 30.8238 207.084 31.3363 207.033 31.9256C206.982 32.5149 206.471 32.9505 205.883 32.8992Z" fill="#FAE0B2"/>
<path d="M199.572 52.4748C199.163 52.0649 199.163 51.373 199.572 50.9631C201.131 49.4001 202.868 48.0165 204.682 46.7866C205.168 46.4535 205.832 46.5816 206.164 47.0941C206.496 47.5809 206.369 48.2471 205.858 48.5802C204.146 49.7332 202.536 51.0399 201.054 52.5004C200.645 52.8848 199.981 52.8848 199.572 52.4748Z" fill="#FAE0B2"/>
<path d="M227.984 19.678C227.422 19.5242 227.09 18.9349 227.217 18.3712C227.933 15.6552 228.393 12.8624 228.521 10.0695C228.546 9.48023 229.057 9.01902 229.645 9.07027C230.232 9.09589 230.692 9.60834 230.641 10.1977C230.488 13.1442 230.028 16.0908 229.261 18.9349C229.134 19.4986 228.546 19.8317 227.984 19.678Z" fill="#FAE0B2"/>
<path d="M234.551 27.8772C234.372 27.3135 234.704 26.7242 235.266 26.5448L241.883 24.5463C242.445 24.3669 243.033 24.7 243.212 25.2637C243.391 25.8274 243.059 26.4167 242.497 26.5961L235.879 28.5946C235.317 28.7484 234.704 28.4409 234.551 27.8772Z" fill="#FAE0B2"/>
<path d="M245.409 45.5311C245.307 45.5311 245.205 45.5055 245.128 45.4799C242.829 44.8393 240.606 43.9425 238.511 42.8151C238 42.5333 237.795 41.8927 238.076 41.3803C238.357 40.8678 238.996 40.6628 239.507 40.9447C241.474 41.9952 243.57 42.8408 245.716 43.4301C246.278 43.5838 246.61 44.1731 246.457 44.7368C246.303 45.2237 245.869 45.5311 245.409 45.5311Z" fill="#FAE0B2"/>
<path d="M342.347 92.7534L339 84.8361L330.594 83.0938C329.648 82.8888 329.316 81.6845 330.057 81.0439L336.547 75.407L335.601 66.8747C335.499 65.901 336.547 65.2349 337.39 65.7217L344.723 70.1544L352.541 66.5929C353.435 66.1829 354.406 66.9772 354.176 67.9252L352.234 76.3038L358.009 82.6582C358.673 83.3756 358.213 84.5542 357.242 84.6311L348.709 85.3742L344.467 92.8559C343.982 93.7271 342.73 93.6502 342.347 92.7534Z" fill="#F7CC7F"/>
<path d="M395.491 65.5936L394.137 71.1281L384.99 69.8982L382 77.7643L375 77.9693L375.102 81.5052L384.453 81.249L387.289 73.7928L396.794 75.0739L398.864 66.721L395.491 65.5936Z" fill="#F48C7F"/>
<path d="M314.088 331.299H153.48C147.348 331.299 142.365 326.123 142.365 319.743V312.876C142.365 306.496 147.348 301.321 153.48 301.321H314.114C306.755 309.674 306.627 322.434 313.807 330.94L314.088 331.299Z" fill="#B75742"/>
<path d="M311.61 304.754H222.516C216.384 304.754 211.402 309.93 211.402 316.31C211.402 322.69 216.384 327.865 222.516 327.865H311.61C307.445 320.768 307.471 311.826 311.61 304.754Z" fill="#FAE0B2"/>
<path d="M257.673 280.489C257.903 280.054 257.546 279.541 257.009 279.541H172.004C165.335 279.541 159.944 284.41 159.944 290.431C159.944 296.452 165.335 301.321 172.004 301.321H257.035C257.571 301.321 257.929 300.808 257.699 300.373C254.326 294.069 254.326 286.767 257.673 280.489Z" fill="#86B1F2"/>
<path d="M257.137 281.591H215.005C207.186 281.591 200.85 285.665 200.85 290.713C200.85 295.76 207.186 299.834 215.005 299.834H257.392C254.505 294.018 254.429 287.408 257.137 281.591Z" fill="#F7CC7F"/>
<path d="M246.252 285.896H240.759C239.584 285.896 238.613 286.306 238.613 286.793V286.869H246.227V285.896H246.252Z" fill="#B75742"/>
<path d="M250.928 288.125C250.928 286.895 249.497 285.896 247.734 285.896H240.683C242.011 285.896 243.11 286.639 243.11 287.587L243.084 311.441L246.968 308.367L250.928 311.441V288.125Z" fill="#F47458"/>
<path d="M242.037 278.773H192.597C188.203 278.773 184.651 274.545 184.651 269.318C184.651 264.091 188.203 259.863 192.597 259.863H242.037C238.255 265.09 238.102 272.777 241.679 278.235L242.037 278.773Z" fill="#FAE0B2"/>
<path d="M184.651 269.318C184.651 264.091 188.279 259.863 192.776 259.863H242.982C243.212 259.863 243.416 259.633 243.391 259.377C243.391 259.12 243.212 258.89 242.982 258.89H163.342C158.385 258.89 154.374 263.553 154.374 269.318C154.374 275.083 158.385 279.746 163.342 279.746H242.982C243.212 279.746 243.391 279.541 243.391 279.26C243.391 278.978 243.212 278.773 242.982 278.773H192.776C188.279 278.773 184.651 274.545 184.651 269.318Z" fill="#466EB6"/>
<path d="M233.401 264.501H227.907C226.732 264.501 225.761 264.885 225.761 265.372V265.449H233.375V264.501H233.401Z" fill="#184655"/>
<path d="M238.076 266.705C238.076 265.5 236.646 264.527 234.883 264.527H227.831C229.159 264.527 230.258 265.27 230.258 266.192L230.233 289.586L234.116 286.588L238.076 289.586V266.705Z" fill="#3C8F7C"/>
<path d="M320.833 120.041L328.141 118.12L323.184 184.303L314.42 184.585L318.84 122.45C318.917 121.297 319.735 120.323 320.833 120.041Z" fill="#184655"/>
<path d="M323.848 186.173C323.695 186.199 323.516 186.199 323.337 186.173C321.881 185.994 320.808 184.559 320.936 182.945L325.79 120.708C325.918 119.093 327.195 117.915 328.652 118.094C330.108 118.274 331.181 119.708 331.054 121.323L326.199 183.56C326.071 184.995 325.075 186.071 323.848 186.173Z" fill="#F7CC7F"/>
<path d="M256.651 189.478C256.651 189.53 256.651 189.581 256.651 189.607C256.881 192.143 258.849 194.039 261.02 193.834L322.673 188.3C324.845 188.095 326.454 185.891 326.224 183.355C326.224 183.252 326.199 183.15 326.173 183.047L256.651 189.478Z" fill="#F7CC7F"/>
<path d="M299.576 256.328C295.539 258.582 283.198 254.636 283.198 254.278C283.019 257.66 269.375 290.764 269.375 290.764V300.962C269.375 300.962 297.481 302.294 297.072 299.809C296.663 297.324 295.156 298.938 289.56 294.223C289.075 293.813 281.18 291.968 283.326 287.305C287.618 277.902 296.74 262.221 299.576 256.328Z" fill="#F7A491"/>
<path d="M268.481 301.321H299.243C300.342 301.218 300.623 300.296 300.214 299.758C299.397 298.63 293.52 295.94 289.534 294.172C282.636 294.992 270.5 292.327 269.375 290.739C266.463 294.659 267.842 301.193 268.481 301.321Z" fill="#3C8F7C"/>
<path d="M261.71 232.576C261.302 231.32 288.206 219.867 289.407 221.174C291.527 223.48 274.843 266.935 274.843 266.935L294.006 272.803C294.006 272.803 313.935 222.608 313.117 213.436C312.274 204.263 302.31 193.834 280.669 200.496C259.053 207.184 261.71 232.576 261.71 232.576Z" fill="#355389"/>
<path d="M317.435 262.041C312.887 261.221 307.011 260.965 302.284 260.888C302.846 265.09 305.529 286.665 305.043 287.997C303.05 293.378 298.605 295.889 298.605 295.889C298.605 295.889 319.505 314.798 320.757 312.62C322.009 310.442 319.837 310.724 318.457 303.524C318.329 302.884 315.315 292.84 315.136 287.408C314.804 277.056 317.282 267.781 317.435 262.041Z" fill="#F7A491"/>
<path d="M310.715 191.451C307.803 189.888 300.24 189.837 291.911 190.375C275.686 191.426 259.666 194.629 244.259 199.753L233.937 203.186L233.963 192.579C233.963 192.579 201.105 187.07 199.981 195.244C198.269 207.542 200.39 232.499 211.351 238.059C245.333 255.354 292.984 210.489 293.163 216.356C293.392 224.248 300.01 253.586 301.722 266.423C306.423 266.5 314.522 266.5 318.048 265.705C318.713 240.544 319.019 195.884 310.715 191.451Z" fill="#466EB6"/>
<path d="M297.992 296.324L321.472 315.131C322.392 315.746 323.184 315.208 323.21 314.542C323.312 313.158 320.425 307.342 318.483 303.447C312.632 299.681 304.916 289.867 305.043 287.946C302.591 290.047 297.583 295.837 297.992 296.324Z" fill="#3C8F7C"/>
<path d="M244.822 88.8332C244.03 81.6077 243.212 74.3309 237.233 69.0526C232.404 64.7737 226.247 64.0306 220.166 66.3366C202.919 72.8191 211.811 88.167 189.838 103.643C183.016 108.46 175.479 111.74 170.343 118.222C163.138 127.293 165.872 138.182 172.413 145.459C203.788 180.28 238.817 133.263 241.347 121.963C243.212 113.585 245.333 93.4965 244.822 88.8332Z" fill="#13375B"/>
<path d="M238.46 129.496C235.905 124.756 233.248 120.989 233.248 120.989C230.59 116.249 223.717 113.841 223.717 113.841C223.717 113.841 221.418 113.892 218.786 114.02C218.633 114.456 218.454 114.763 218.301 114.891C217.304 115.634 211.632 114.686 207.953 117.172C195.663 127.754 199.062 178.999 200.032 195.192L237.489 195.551C237.489 195.551 232.762 160.704 240.376 151.762C245.665 145.561 242.267 136.542 238.46 129.496Z" fill="#50BFA5"/>
<path d="M221.571 96.52C221.571 96.52 219.502 111.279 218.071 114.866C216.64 118.453 225.991 126.114 233.759 128.446C241.526 130.777 231.382 120.528 231.715 116.685C232.047 112.842 233.452 94.7008 233.452 94.7008L221.571 96.52Z" fill="#F7A491"/>
<path d="M233.043 99.9278C233.273 96.9299 233.426 94.7264 233.426 94.7264L221.545 96.5456C221.545 96.5456 221.239 98.2879 220.907 100.722C225.736 103.515 230.079 102.618 233.043 99.9278Z" fill="#F47458"/>
<path d="M225.276 69.5907C225.276 69.5907 220.6 70.6413 217.713 75.074C214.826 79.5066 212.833 92.4973 222.363 98.5954C231.868 104.668 239.277 96.0844 239.405 87.7058C239.533 79.3017 237.719 68.1046 225.276 69.5907Z" fill="#F7A491"/>
<path d="M241.577 85.0667C240.759 87.0909 239.15 88.3464 237.974 87.8595C236.799 87.3727 236.493 85.3485 237.31 83.35C238.128 81.3258 239.737 80.0703 240.913 80.5571C242.088 81.0183 242.395 83.0425 241.577 85.0667Z" fill="#F7A491"/>
<path d="M226.681 69.3089C226.681 69.3089 220.728 82.7351 215.465 83.9137C210.227 85.118 210.304 91.8567 210.304 91.8567C210.304 91.8567 210.431 76.2782 215.337 72.691C220.268 69.1295 226.681 69.3089 226.681 69.3089Z" fill="#13375B"/>
<path d="M217.56 86.7066C218.25 88.8845 217.611 91.0368 216.155 91.498C214.698 91.9592 212.935 90.5756 212.245 88.3976C211.556 86.2197 212.194 84.0674 213.651 83.6062C215.133 83.145 216.87 84.5286 217.56 86.7066Z" fill="#F7A491"/>
<path d="M284.578 183.585C282.329 182.765 278.982 182.663 279.033 182.381C279.263 181.177 289.177 185.046 287.848 183.278C287.107 182.304 279.672 178.845 277.858 179.409C276.095 179.973 264.597 183.201 264.597 183.201L233.145 175.796C233.145 175.796 225.199 157.707 224.433 142.154C217.866 143.05 213.395 144.665 207.697 147.842C210.457 162.703 217.125 186.814 224.535 191.323C227.652 193.219 264.776 189.043 264.776 189.043C264.776 189.043 272.952 188.454 274.306 187.941C275.328 187.557 277.935 186.071 279.34 185.661C282.559 184.738 288.308 187.044 288.334 186.404C288.334 185.968 286.877 184.405 284.578 183.585Z" fill="#F7A491"/>
<path d="M224.637 125.55C224.33 120.759 222.516 116.147 217.457 114.661C214.315 113.738 210.789 114.61 208.259 116.685C205.27 119.145 204.427 123.065 204.452 126.78C204.478 135.236 205.066 143.973 206.599 152.3C212.296 149.123 218.965 147.227 225.531 146.33C225.506 146.253 225.02 131.879 224.637 125.55Z" fill="#96D9C9"/>
<path d="M127.188 134.569L78.4132 125.473C77.4423 125.294 76.778 124.346 76.9824 123.372L83.0888 90.4474C83.2677 89.4738 84.213 88.8076 85.184 89.0126L133.959 98.1085C134.93 98.2879 135.594 99.2359 135.39 100.21L129.284 133.135C129.105 134.108 128.159 134.749 127.188 134.569Z" fill="#F7CC7F"/>
<path d="M103.963 96.9555L89.1187 94.1883C88.1478 94.0089 87.4835 93.0609 87.6879 92.0872L88.6077 87.0908C88.7866 86.1172 89.7319 85.451 90.7028 85.656L105.547 88.4232C106.518 88.6026 107.183 89.5506 106.978 90.5243L106.058 95.5206C105.88 96.4943 104.934 97.1349 103.963 96.9555Z" fill="#F7CC7F"/>
<path d="M129.386 133.314C129.13 134.211 128.236 134.774 127.316 134.595L78.2344 125.422C77.3146 125.243 76.6759 124.423 76.7781 123.475L79.3586 93.9833C79.4097 93.4708 79.6652 93.0096 80.074 92.7022C80.4828 92.3947 80.9938 92.2666 81.5048 92.3691L136.029 102.541C136.54 102.644 136.974 102.926 137.23 103.361C137.485 103.797 137.562 104.309 137.434 104.796L129.386 133.314Z" fill="#FAE0B2"/>
<path d="M353.052 25.5712L344.723 27.8516L342.909 17.7051L345.643 17.2183L346.92 24.3669L352.337 22.8808L353.052 25.5712Z" fill="#50BFA5"/>
<path d="M87.0237 164.932C89.1188 164.753 92.3381 165.675 93.7689 166.674C93.9733 166.879 95.6341 167.545 97.3715 170.39L96.9883 170.646C95.1742 168.75 93.9478 168.314 92.4914 167.879C90.0897 167.264 87.688 167.725 87.4836 167.827L87.0237 164.932Z" fill="#355389"/>
<path d="M97.1673 170.518C97.1673 170.518 84.4178 172.644 85.6186 182.637C86.8195 192.63 100.259 200.394 112.242 194.219C128.39 185.917 122.002 164.804 110.53 163.164C99.0324 161.524 97.1673 170.518 97.1673 170.518Z" fill="#F47458"/>
<path d="M102.584 166.136C102.584 166.136 105.906 162.703 113.187 165.829C120.469 168.955 121.006 183.457 114.49 182.611C108.001 181.766 97.3718 168.212 102.584 166.136Z" fill="#F48C7F"/>
<path d="M190.221 33.5142L137.818 52.2698C136.131 52.8848 134.266 51.988 133.679 50.2969L123.995 23.0858C123.382 21.3947 124.276 19.5243 125.962 18.935L178.366 0.179298C180.052 -0.435642 181.917 0.461146 182.505 2.15223L192.188 29.3377C192.802 31.0544 191.907 32.8992 190.221 33.5142Z" fill="#86B1F2"/>
<path d="M155.498 26.5193C157.415 31.9256 154.604 37.8957 149.213 39.8174C143.822 41.739 137.869 38.9206 135.952 33.5142C134.036 28.1079 136.847 22.1378 142.238 20.2161C147.629 18.2944 153.557 21.1129 155.498 26.5193Z" fill="white"/>
<path d="M147.194 25.0588C147.756 26.6474 146.939 28.4153 145.329 28.979C143.745 29.5427 141.982 28.7228 141.42 27.1086C140.858 25.52 141.675 23.752 143.285 23.1883C144.869 22.6503 146.632 23.4702 147.194 25.0588Z" fill="#86B1F2"/>
<path d="M152.177 33.6423L142.953 36.9476L142.596 35.9227C141.931 34.0266 142.902 31.9512 144.793 31.285L147.169 30.4395C149.06 29.7733 151.129 30.747 151.794 32.643L152.177 33.6423Z" fill="#86B1F2"/>
<path d="M156.776 20.8311C156.214 20.8311 155.728 20.4724 155.524 19.9599C155.268 19.2681 155.626 18.4994 156.316 18.2688L179.235 10.0696C179.388 10.0184 179.516 9.99277 179.669 9.99277C180.231 9.99277 180.716 10.3515 180.921 10.8639C181.176 11.5557 180.819 12.3244 180.129 12.555L157.21 20.7542C157.083 20.8055 156.929 20.8311 156.776 20.8311Z" fill="white"/>
<path d="M162.959 26.5705C162.397 26.5705 161.911 26.2118 161.707 25.6993C161.451 25.0075 161.809 24.2389 162.499 24.0083L180.384 17.6026C180.537 17.5514 180.665 17.5258 180.818 17.5258C181.38 17.5258 181.866 17.8845 182.07 18.3969C182.198 18.73 182.173 19.0887 182.019 19.4218C181.866 19.7549 181.61 19.9855 181.278 20.1136L163.393 26.5193C163.265 26.5449 163.112 26.5705 162.959 26.5705Z" fill="white"/>
<path d="M271.649 238.622H145.125C141.19 238.622 138.022 241.825 138.022 245.745V251.741C138.022 255.687 141.216 258.864 145.125 258.864H271.649L271.573 258.787C266.182 253.176 266.207 244.234 271.649 238.622Z" fill="#F47458"/>
<path d="M269.401 241.62H201.769C197.835 241.62 194.667 244.823 194.667 248.743C194.667 252.689 197.86 255.866 201.769 255.866H269.401C266.922 251.485 266.922 246.027 269.401 241.62Z" fill="#FAE0B2"/>
<path d="M375.204 239.212L365.623 215.075C365.137 213.871 365.725 212.487 366.951 212.001L401.47 198.216C402.671 197.729 404.05 198.318 404.536 199.548L414.117 223.684C414.602 224.889 414.015 226.272 412.788 226.759L378.27 240.544C377.069 241.005 375.69 240.416 375.204 239.212Z" fill="#FAE0B2"/>
<path d="M407.78 225.247L399.17 203.571C399.042 203.212 399.196 202.828 399.553 202.7C399.911 202.571 400.294 202.725 400.422 203.084L409.032 224.761C409.16 225.119 409.007 225.504 408.649 225.632C408.291 225.76 407.908 225.606 407.78 225.247Z" fill="#466EB6"/>
<path d="M403.667 222.403L396.59 204.596C396.462 204.237 396.615 203.853 396.973 203.724C397.331 203.596 397.714 203.75 397.842 204.109L404.919 221.916C405.047 222.275 404.894 222.659 404.536 222.788C404.204 222.916 403.795 222.736 403.667 222.403Z" fill="#466EB6"/>
<path d="M402.645 227.297L394.034 205.621C393.907 205.262 394.06 204.877 394.418 204.749C394.775 204.621 395.159 204.775 395.286 205.134L403.897 226.81C404.025 227.169 403.871 227.553 403.514 227.682C403.182 227.81 402.773 227.656 402.645 227.297Z" fill="#466EB6"/>
<path d="M398.097 223.377L391.454 206.645C391.326 206.287 391.479 205.902 391.837 205.774C392.195 205.646 392.578 205.8 392.706 206.159L399.349 222.89C399.477 223.249 399.323 223.633 398.966 223.761C398.633 223.889 398.25 223.736 398.097 223.377Z" fill="#466EB6"/>
<path d="M407.525 201.265L407.346 200.829C407.27 200.675 407.116 200.599 406.963 200.65L403.693 201.956C403.539 202.008 403.463 202.187 403.539 202.366L403.718 202.802C403.795 202.956 403.948 203.033 404.101 202.981L407.372 201.675C407.525 201.598 407.602 201.418 407.525 201.265Z" fill="#355389"/>
<path d="M408.266 203.11L408.087 202.674C408.011 202.52 407.857 202.443 407.704 202.495L404.434 203.801C404.28 203.853 404.204 204.032 404.28 204.211L404.459 204.647C404.536 204.801 404.689 204.878 404.842 204.826L408.113 203.52C408.266 203.468 408.343 203.289 408.266 203.11Z" fill="#355389"/>
<path d="M409.033 204.98L408.854 204.544C408.803 204.391 408.624 204.314 408.47 204.365L405.2 205.672C405.047 205.723 404.97 205.902 405.047 206.082L405.226 206.517C405.302 206.671 405.455 206.748 405.609 206.697L408.879 205.39C409.007 205.339 409.084 205.159 409.033 204.98Z" fill="#355389"/>
<path d="M409.773 206.85L409.595 206.415C409.518 206.261 409.365 206.184 409.211 206.235L405.941 207.542C405.788 207.593 405.711 207.773 405.788 207.952L405.967 208.388C406.043 208.541 406.196 208.618 406.35 208.567L409.62 207.26C409.748 207.183 409.825 207.004 409.773 206.85Z" fill="#355389"/>
<path d="M410.514 208.721L410.335 208.285C410.259 208.132 410.105 208.055 409.952 208.106L406.682 209.413C406.529 209.464 406.452 209.643 406.529 209.823L406.707 210.258C406.784 210.412 406.937 210.489 407.091 210.438L410.361 209.131C410.489 209.054 410.565 208.875 410.514 208.721Z" fill="#355389"/>
<path d="M411.255 210.591L411.077 210.156C411 210.002 410.847 209.925 410.693 209.976L407.423 211.283C407.27 211.334 407.193 211.514 407.27 211.693L407.448 212.129C407.525 212.282 407.678 212.359 407.832 212.308L411.102 211.001C411.23 210.924 411.307 210.745 411.255 210.591Z" fill="#355389"/>
<path d="M411.996 212.462L411.818 212.026C411.741 211.872 411.588 211.796 411.434 211.847L408.164 213.154C408.011 213.205 407.934 213.384 408.011 213.563L408.189 213.999C408.266 214.153 408.419 214.23 408.573 214.178L411.843 212.872C411.996 212.795 412.047 212.615 411.996 212.462Z" fill="#355389"/>
<path d="M412.737 214.332L412.558 213.897C412.482 213.743 412.328 213.666 412.175 213.717L408.905 215.024C408.752 215.075 408.675 215.255 408.752 215.434L408.93 215.87C409.007 216.023 409.16 216.1 409.314 216.049L412.584 214.742C412.737 214.665 412.788 214.486 412.737 214.332Z" fill="#355389"/>
<path d="M413.478 216.203L413.3 215.767C413.223 215.613 413.07 215.536 412.916 215.588L409.646 216.894C409.492 216.946 409.416 217.125 409.492 217.304L409.671 217.74C409.748 217.894 409.901 217.971 410.055 217.919L413.325 216.613C413.478 216.536 413.53 216.356 413.478 216.203Z" fill="#355389"/>
<path d="M414.219 218.073L414.04 217.637C413.964 217.484 413.81 217.407 413.657 217.458L410.387 218.765C410.233 218.816 410.157 218.995 410.233 219.175L410.412 219.61C410.489 219.764 410.642 219.841 410.796 219.79L414.066 218.483C414.219 218.406 414.27 218.227 414.219 218.073Z" fill="#355389"/>
<path d="M414.96 219.918L414.781 219.482C414.73 219.329 414.551 219.252 414.398 219.303L411.128 220.61C410.974 220.661 410.898 220.84 410.974 221.02L411.153 221.455C411.23 221.609 411.383 221.686 411.537 221.635L414.807 220.328C414.96 220.277 415.011 220.097 414.96 219.918Z" fill="#355389"/>
<path d="M415.701 221.788L415.522 221.353C415.445 221.199 415.292 221.122 415.139 221.173L411.868 222.48C411.715 222.531 411.638 222.711 411.715 222.89L411.894 223.326C411.945 223.479 412.124 223.556 412.277 223.505L415.548 222.198C415.701 222.147 415.778 221.968 415.701 221.788Z" fill="#355389"/>
<path d="M424.746 219.867L411.051 239.417C411.025 239.468 411 239.519 410.974 239.57L409.569 243.875C409.416 244.387 409.978 244.797 410.412 244.464L414.066 241.697C414.117 241.671 414.142 241.62 414.194 241.569L427.94 221.968C428.118 221.711 428.042 221.378 427.786 221.199L425.487 219.713C425.231 219.585 424.925 219.636 424.746 219.867Z" fill="#B75742"/>
<path d="M414.194 241.594L414.168 241.646L410.642 244.31L409.671 243.67L411 239.596C412.022 240.16 413.248 240.749 414.194 241.594Z" fill="#F7CC7F"/>
<path d="M285.983 8.12219C287.95 9.71079 291.374 14.784 295.769 18.3456C298.324 20.421 300.291 19.9085 303.562 20.2929C319.07 22.1633 314.855 25.3405 316.72 25.6736C316.183 26.9035 311.354 37.1781 310.46 39.2792C309.617 41.2008 308.186 42.0464 306.091 41.7645C302.897 41.329 299.652 40.9959 296.484 40.3041C288.385 38.5361 283.888 34.4877 278.088 29.5682C276.555 28.2615 276.172 26.6216 276.964 24.7768C280.694 16.142 285.574 8.91649 285.983 8.12219Z" fill="#466EB6"/>
<path d="M318.406 38.0493C318.329 41.4315 318.585 42.1233 317.154 41.6109C316.285 41.3034 315.442 40.8934 314.599 40.4835C314.011 40.176 313.986 39.7917 314.471 39.3048C315.161 38.613 315.877 37.9468 316.566 37.255C316.055 35.9227 316.643 34.3853 317.87 33.6423C318.125 33.4885 317.946 33.796 320.092 28.8252C312.964 27.9541 307.905 27.3391 299.192 26.263C296.867 25.9811 294.798 25.0587 292.984 23.547C286.749 18.32 280.541 13.093 274.332 7.89165C273.489 7.17422 273.387 6.14932 274.051 5.35502C274.562 4.74008 275.252 4.71446 275.967 4.81695C277.96 5.07317 297.455 7.50731 299.422 7.73791C302.028 8.04538 304.302 9.01904 306.321 10.7101C312.427 15.8346 318.559 20.9591 324.691 26.0836C325.535 26.7754 325.765 27.4416 325.458 28.2103C325.126 29.0815 324.436 29.4914 323.363 29.2352C322.596 29.0558 322.239 29.3121 321.983 30.0295C320.782 33.2579 319.939 33.9754 320.246 35.1796C320.45 36.0764 319.377 37.6394 318.406 38.0493Z" fill="#86B1F2"/>
<path d="M350.727 268.216L354.279 271.624C362.685 279.67 369.532 289.176 374.489 299.706L375.025 300.859C375.025 300.859 384.326 301.679 385.629 293.25C377.478 284 370.758 274.135 365.214 263.169L363.528 259.223L350.727 268.216Z" fill="#466EB6"/>
<path d="M363.528 259.223C363.988 259.889 361.484 262.426 357.958 264.885C354.432 267.345 351.161 268.857 350.727 268.191C350.267 267.525 352.771 264.962 356.323 262.503C359.849 260.017 363.068 258.557 363.528 259.223Z" fill="#86B1F2"/>
<path d="M363.553 259.249C363.553 259.249 356.45 265.244 353.538 265.859L354.432 267.089C355.505 266.5 356.706 265.757 357.958 264.885C361.458 262.426 363.937 259.94 363.553 259.249Z" fill="#355389"/>
<path d="M373.007 276.697C373.007 277.722 372.623 282.206 365.214 284.077C365.699 284.743 366.185 285.409 366.645 286.101C371.346 284.717 373.441 282.283 374.412 280.438C374.565 280.156 374.744 279.746 374.872 279.465C374.233 278.542 373.62 277.62 373.007 276.697Z" fill="#B75742"/>
<path d="M365.878 282.744L354.943 282.36L357.549 284.564L355.99 287.356L366.338 284.717L365.878 282.744Z" fill="#B75742"/>
<path d="M366.875 285.281L362.991 292.071L365.725 291.021L366.773 293.173L368.587 286.05L366.875 285.281Z" fill="#B75742"/>
<path d="M368.357 287.126C366.44 287.254 364.78 285.768 364.626 283.795C364.499 281.822 365.929 280.105 367.846 279.951C369.762 279.823 371.423 281.309 371.576 283.282C371.704 285.281 370.273 286.998 368.357 287.126Z" fill="#F47458"/>
<path d="M391.531 133.339L368.535 112.765C367.054 111.432 367.667 108.665 369.736 107.512L388.081 97.0836C389.257 96.4174 390.585 96.4687 391.428 97.2373L414.424 117.812C415.905 119.145 415.292 121.912 413.223 123.065L394.878 133.493C393.702 134.159 392.374 134.108 391.531 133.339Z" fill="#9BC1F9"/>
<path d="M390.432 116.967L388.516 101.158C388.439 100.543 388.873 99.9021 389.487 99.7227C390.1 99.5177 390.662 99.8764 390.738 100.466L392.501 115.019L409.927 119.247C410.489 119.375 410.77 119.99 410.514 120.631C410.259 121.246 409.62 121.63 409.032 121.502L390.432 116.967Z" fill="white"/>
<path d="M2.22286 331.12C0.996456 331.12 0 332.273 0 333.707C0 335.142 0.996456 336.295 2.50392 334.553H455.406C455.994 334.553 456.454 333.784 456.454 332.836C456.454 331.888 455.994 331.12 455.406 331.12H2.22286Z" fill="#607EF5"/>
<path d="M90.1664 44.5575L92.5426 49.272L97.9081 49.0927L100.182 54.5759L105.854 52.6286L108.716 58.7011L114.158 57.5481L117.863 62.9288L115.819 64.3381L113.059 60.3153L107.311 61.5196L104.577 55.6777L98.8024 57.6762L96.2729 51.6293L91.0351 51.8087L88.8378 47.4272L85.4141 48.2728L84.8264 45.8642L90.1664 44.5575Z" fill="#F7CC7F"/>
<path d="M377.734 165.188L382.614 167.187L386.548 163.497L391.863 166.136L394.852 160.909L400.984 163.625L404.331 159.167L410.668 160.781L410.055 163.19L405.328 161.985L401.802 166.674L395.9 164.087L392.859 169.365L386.983 166.495L383.15 170.057L378.628 168.212L376.584 171.107L374.565 169.672L377.734 165.188Z" fill="#50BFA5"/>
</g>
<defs>
<clipPath id="clip0_1303:4061">
<rect width="456.454" height="335.424" fill="white"/>
</clipPath>
</defs>
</svg>
