<svg width="262" height="177" viewBox="0 0 262 177" fill="none" xmlns="http://www.w3.org/2000/svg">
<circle cx="102" cy="122" r="43" fill="#FAAA5F" fill-opacity="0.17"/>
<g clip-path="url(#clip0_1378:4158)">
<path d="M196.526 143.958C195.744 144.233 194.905 144.302 194.088 144.158C193.272 144.014 192.507 143.663 191.866 143.137C190.234 141.768 189.721 139.511 189.306 137.421L188.074 131.24L190.653 133.015C192.507 134.292 194.403 135.609 195.687 137.459C196.97 139.308 197.531 141.833 196.499 143.834" fill="#E6E6E6"/>
<path d="M196.305 151.442C196.566 149.541 196.835 147.616 196.652 145.695C196.489 143.988 195.969 142.322 194.909 140.955C194.346 140.231 193.662 139.611 192.886 139.122C192.684 138.995 192.498 139.315 192.699 139.442C194.041 140.29 195.079 141.543 195.664 143.019C196.309 144.661 196.413 146.451 196.301 148.194C196.233 149.249 196.091 150.296 195.947 151.343C195.936 151.391 195.942 151.441 195.967 151.483C195.991 151.525 196.03 151.557 196.077 151.571C196.124 151.584 196.175 151.578 196.217 151.553C196.26 151.529 196.291 151.489 196.305 151.442L196.305 151.442Z" fill="#F2F2F2"/>
<path d="M186.961 119.869H79.0917V12H186.961V119.869Z" fill="white"/>
<path d="M186.961 119.869H79.0917V12H186.961V119.869ZM80.6854 118.275H185.367V13.5938H80.6854V118.275Z" fill="#607EF5"/>
<path d="M167.851 28.8762H121.14V30.3313H167.851V28.8762Z" fill="#607EF5"/>
<path d="M167.851 32.6594H121.14V34.1145H167.851V32.6594Z" fill="#607EF5"/>
<path d="M167.851 36.4427H121.14V37.8978H167.851V36.4427Z" fill="#607EF5"/>
<path d="M167.851 61.3622H121.14V62.8173H167.851V61.3622Z" fill="#607EF5"/>
<path d="M167.851 65.1454H121.14V66.6006H167.851V65.1454Z" fill="#607EF5"/>
<path d="M167.851 68.9287H121.14V70.3838H167.851V68.9287Z" fill="#607EF5"/>
<path d="M167.851 93.8482H121.14V95.3033H167.851V93.8482Z" fill="#607EF5"/>
<path d="M167.851 97.6315H121.14V99.0866H167.851V97.6315Z" fill="#607EF5"/>
<path d="M167.851 101.415H121.14V102.87H167.851V101.415Z" fill="#607EF5"/>
<path d="M102.44 40.4696C101.642 40.0491 100.809 39.6985 99.9502 39.4219L99.8407 38.2109L95.4008 37.7325L94.8365 39.2805L93.2432 39.8784C93.1861 39.9 93.1319 39.9283 93.0815 39.9626H93.0798C92.9908 40.0227 92.9151 40.1003 92.8572 40.1907C92.7993 40.281 92.7604 40.3822 92.7429 40.4881C92.7259 40.5934 92.7299 40.701 92.7547 40.8048L92.8389 41.1501C92.9602 41.2225 93.0848 41.2916 93.2094 41.3572L93.2886 41.3977C93.4706 41.492 93.6559 41.5813 93.8462 41.6638C93.8849 41.6806 93.927 41.6975 93.9658 41.7143C93.9691 41.716 93.9708 41.716 93.9741 41.7177C94.0635 41.7548 94.1527 41.7901 94.2437 41.8238C94.5424 41.9379 94.8472 42.0358 95.1566 42.1169C95.9461 42.3273 96.7598 42.4338 97.577 42.4336C97.8751 42.4336 98.1699 42.4201 98.4613 42.3914C99.1271 42.33 99.7844 42.1973 100.422 41.9956C100.424 41.9956 100.425 41.9939 100.427 41.9939C100.83 41.8656 101.223 41.7097 101.604 41.5274C101.606 41.5257 101.609 41.5257 101.611 41.524C101.697 41.4836 101.779 41.4398 101.864 41.3977L101.904 41.3775C101.971 41.3421 102.039 41.3067 102.106 41.2697C102.275 41.177 102.44 41.0793 102.603 40.9749C102.649 40.9479 102.692 40.9193 102.738 40.889C102.802 40.8469 102.866 40.8031 102.928 40.7576C102.771 40.6566 102.608 40.5606 102.44 40.4696Z" fill="#3F3D56"/>
<path d="M94.1072 41.2158L93.8293 39.9609H93.1033C93.096 39.961 93.0887 39.9616 93.0815 39.9626H93.0797C92.8188 39.9847 92.5676 40.0715 92.3487 40.2153C92.2003 40.31 92.0683 40.4284 91.958 40.5656C92.1736 40.729 92.3976 40.8806 92.6284 41.0254L92.6385 41.0305C92.7041 41.0709 92.7716 41.1113 92.8389 41.1501C92.9602 41.2225 93.0848 41.2916 93.2094 41.3572L93.2886 41.3977C93.4706 41.492 93.6558 41.5813 93.8462 41.6638C93.8849 41.6806 93.927 41.6975 93.9657 41.7143C93.9691 41.716 93.9708 41.716 93.9741 41.7177C94.0635 41.7548 94.1527 41.7901 94.2436 41.8238L94.1072 41.2158Z" fill="#3F3D56"/>
<path d="M97.4464 36.9669C99.2125 36.9669 100.644 35.5353 100.644 33.7693C100.644 32.0032 99.2125 30.5716 97.4464 30.5716C95.6804 30.5716 94.2488 32.0032 94.2488 33.7693C94.2488 35.5353 95.6804 36.9669 97.4464 36.9669Z" fill="#FFB8B8"/>
<path d="M95.2996 32.2117C95.6306 32.6034 96.1908 32.714 96.7076 32.7593C97.9157 32.826 99.1273 32.7271 100.309 32.4653C100.382 33.1747 100.182 33.9397 100.6 34.5233C100.796 33.8168 100.91 33.09 100.94 32.3574C100.971 32.0431 100.93 31.7258 100.82 31.4298C100.761 31.2814 100.661 31.1525 100.533 31.0578C100.404 30.9631 100.252 30.9063 100.093 30.8939C100.331 30.7132 100.61 30.5939 100.905 30.5466L99.8901 30.0363L100.151 29.7686L98.3126 29.6562L98.845 29.3179C98.0437 29.2078 97.233 29.1822 96.4264 29.2416C96.0494 29.2417 95.6796 29.3445 95.3566 29.5389C95.0531 29.756 94.8777 30.1873 95.0662 30.506C94.8303 30.5447 94.6082 30.643 94.4209 30.7916C94.2337 30.9402 94.0874 31.1341 93.9961 31.355C93.8806 31.7062 93.8527 32.0802 93.9149 32.4446C93.9841 33.0292 94.12 33.604 94.3198 34.1578L95.2996 32.2117Z" fill="#2F2E41"/>
<path d="M106.438 30.3029C105.99 29.014 105.265 27.8385 104.316 26.8583C103.366 25.8782 102.214 25.117 100.94 24.6278C99.6659 24.1386 98.3004 23.9332 96.9388 24.026C95.5772 24.1187 94.2523 24.5073 93.0563 25.1648C91.8604 25.8222 90.8222 26.7326 90.0142 27.8324C89.2063 28.9323 88.648 30.1952 88.3782 31.533C88.1085 32.8708 88.1338 34.2514 88.4524 35.5784C88.7711 36.9054 89.3753 38.147 90.2231 39.2165C90.3073 39.3226 90.3949 39.4287 90.4842 39.5314C90.491 39.5382 90.496 39.5449 90.5027 39.5516C90.7223 39.8046 90.9556 40.0453 91.2017 40.2725C91.2658 40.3315 91.3331 40.3921 91.4005 40.4494C91.5285 40.5639 91.6599 40.6734 91.7963 40.7778C91.8502 40.82 91.9024 40.8621 91.958 40.9025C92.1736 41.0659 92.3976 41.2175 92.6284 41.3623L92.6385 41.3674C92.7041 41.4078 92.7716 41.4482 92.8389 41.487C92.9602 41.5594 93.0848 41.6284 93.2094 41.6941L93.2886 41.7346C93.4706 41.8289 93.6559 41.9182 93.8462 42.0007C93.8849 42.0175 93.927 42.0344 93.9658 42.0512C93.9691 42.0529 93.9708 42.0529 93.9741 42.0546C94.0635 42.0916 94.1527 42.127 94.2437 42.1607C94.5424 42.2748 94.8472 42.3726 95.1565 42.4538C95.9461 42.6642 96.7598 42.7707 97.577 42.7704C97.8751 42.7704 98.1699 42.757 98.4613 42.7283C99.1271 42.6669 99.7844 42.5342 100.422 42.3325C100.423 42.3325 100.425 42.3308 100.427 42.3308C100.83 42.2025 101.223 42.0466 101.604 41.8643C101.606 41.8626 101.609 41.8626 101.611 41.8609C101.697 41.8205 101.779 41.7767 101.864 41.7346L101.904 41.7143C101.971 41.679 102.039 41.6436 102.106 41.6065C102.275 41.5139 102.44 41.4162 102.603 41.3118C102.649 41.2848 102.692 41.2562 102.738 41.2259C102.802 41.1838 102.866 41.14 102.928 41.0945C103.011 41.0372 103.093 40.9783 103.174 40.9176C103.199 40.8991 103.226 40.8806 103.252 40.8604C104.83 39.6626 105.988 37.996 106.56 36.0994C107.133 34.2029 107.09 32.1737 106.438 30.3029V30.3029ZM102.942 40.4511C102.886 40.4949 102.829 40.537 102.771 40.5757C102.716 40.6178 102.66 40.6583 102.603 40.6953C102.554 40.7307 102.505 40.7644 102.455 40.7964L102.44 40.8065C102.403 40.8317 102.366 40.8553 102.329 40.8789C102.189 40.9665 102.047 41.0507 101.904 41.1316L101.859 41.1568C101.795 41.1922 101.731 41.2259 101.667 41.2596C101.658 41.2646 101.648 41.268 101.64 41.273L101.63 41.2781C101.549 41.3202 101.466 41.3606 101.384 41.3994C101.065 41.5528 100.737 41.6855 100.402 41.7969C100.358 41.812 100.314 41.8272 100.27 41.8407C99.6669 42.0326 99.0446 42.1591 98.4141 42.218C98.1379 42.2432 97.8583 42.2567 97.577 42.2567C96.8041 42.2583 96.0344 42.1575 95.288 41.9569C94.9049 41.8569 94.5295 41.7297 94.1645 41.5762C94.1459 41.5678 94.1257 41.5611 94.1072 41.5527C94.0871 41.5442 94.0685 41.5375 94.05 41.5291C94.0297 41.5207 94.0112 41.5122 93.991 41.5021C93.8327 41.4331 93.676 41.3573 93.5228 41.2781L93.4487 41.2394C93.2617 41.1417 93.0781 41.0372 92.8995 40.9261C92.8473 40.8941 92.7935 40.8604 92.7429 40.825C92.7295 40.8166 92.7176 40.8082 92.7041 40.7997C92.5846 40.7206 92.465 40.638 92.3488 40.5521C92.2696 40.4932 92.1904 40.4342 92.113 40.3736C91.9833 40.2759 91.8586 40.1715 91.7374 40.0637C91.6734 40.0098 91.611 39.9508 91.5504 39.8952C91.3116 39.6747 91.0855 39.4408 90.8733 39.1946C90.8026 39.1137 90.7335 39.0329 90.6678 38.9487C90.6528 38.932 90.6388 38.9146 90.6257 38.8964C89.5313 37.5155 88.8731 35.8398 88.7349 34.0832C88.5967 32.3267 88.9848 30.5687 89.8498 29.0336C90.7148 27.4985 92.0174 26.2558 93.5915 25.464C95.1656 24.6722 96.9398 24.3672 98.688 24.5879C100.436 24.8085 102.079 25.5449 103.407 26.703C104.735 27.8611 105.688 29.3885 106.144 31.0904C106.6 32.7923 106.54 34.5916 105.969 36.2588C105.399 37.9259 104.345 39.3854 102.942 40.4511L102.942 40.4511Z" fill="#3F3D56"/>
<path d="M106.438 62.7889C105.99 61.5 105.265 60.3245 104.316 59.3444C103.366 58.3642 102.214 57.603 100.94 57.1138C99.666 56.6246 98.3005 56.4192 96.9389 56.512C95.5774 56.6047 94.2524 56.9934 93.0564 57.6508C91.8605 58.3082 90.8223 59.2186 90.0144 60.3185C89.2064 61.4183 88.6481 62.6812 88.3783 64.019C88.1086 65.3568 88.1339 66.7374 88.4526 68.0644C88.7712 69.3914 89.3754 70.633 90.2232 71.7025C90.3074 71.8086 90.395 71.9147 90.4842 72.0174C90.491 72.0242 90.496 72.0309 90.5028 72.0376C90.7224 72.2906 90.9557 72.5313 91.2018 72.7585C91.2658 72.8175 91.3332 72.8781 91.4005 72.9354C91.5286 73.0499 91.6599 73.1594 91.7964 73.2639C92.0628 73.4738 92.3405 73.6689 92.6284 73.8483L92.6385 73.8534C92.8255 73.9696 93.0158 74.0774 93.2095 74.1801L93.2887 74.2206C93.4706 74.3149 93.6559 74.4042 93.8462 74.4867C93.8849 74.5035 93.927 74.5204 93.9658 74.5372C93.9691 74.5389 93.9709 74.5389 93.9742 74.5406C94.3588 74.7005 94.7539 74.8339 95.1567 74.9398C95.9462 75.1502 96.7599 75.2567 97.577 75.2564C97.8751 75.2564 98.1699 75.243 98.4613 75.2143C99.1271 75.1529 99.7844 75.0202 100.422 74.8185C100.424 74.8185 100.425 74.8168 100.427 74.8168C100.83 74.6885 101.223 74.5326 101.604 74.3502C101.606 74.3486 101.609 74.3486 101.611 74.3469C101.697 74.3065 101.779 74.2627 101.864 74.2206L101.904 74.2003C101.972 74.165 102.039 74.1296 102.106 74.0925C102.275 73.9999 102.44 73.9022 102.603 73.7978C102.649 73.7708 102.692 73.7422 102.738 73.7119C102.886 73.6142 103.033 73.5097 103.174 73.4036C103.199 73.3851 103.226 73.3666 103.252 73.3464C104.83 72.1486 105.988 70.482 106.56 68.5854C107.133 66.6888 107.09 64.6597 106.438 62.7889V62.7889Z" fill="white"/>
<path d="M100.673 69.741C101.45 69.741 102.08 69.1114 102.08 68.3347C102.08 67.5581 101.45 66.9285 100.673 66.9285C99.8968 66.9285 99.2672 67.5581 99.2672 68.3347C99.2672 69.1114 99.8968 69.741 100.673 69.741Z" fill="#2F2E41"/>
<path d="M101.065 66.9672C101.309 66.9672 101.548 67.0304 101.76 67.1505C101.971 67.2707 102.148 67.4437 102.273 67.6527C102.398 67.8617 102.466 68.0995 102.471 68.3428C102.477 68.5862 102.419 68.8267 102.303 69.041C102.425 68.8884 102.514 68.7122 102.564 68.5234C102.614 68.3347 102.624 68.1376 102.594 67.9447C102.563 67.7518 102.493 67.5674 102.388 67.4031C102.282 67.2389 102.143 67.0984 101.98 66.9907C101.818 66.883 101.634 66.8104 101.442 66.7775C101.249 66.7446 101.052 66.7522 100.863 66.7998C100.673 66.8473 100.496 66.9338 100.342 67.0537C100.188 67.1735 100.06 67.3242 99.9674 67.4961C100.099 67.331 100.266 67.1977 100.456 67.1062C100.646 67.0146 100.854 66.9671 101.065 66.9672L101.065 66.9672Z" fill="#2F2E41"/>
<path d="M98.0456 68.3317C100.327 68.3317 102.177 66.4822 102.177 64.2007C102.177 61.9192 100.327 60.0696 98.0456 60.0696C95.7641 60.0696 93.9146 61.9192 93.9146 64.2007C93.9146 66.4822 95.7641 68.3317 98.0456 68.3317Z" fill="#2F2E41"/>
<path d="M94.8033 61.6376C95.5151 60.837 96.5101 60.3444 97.5783 60.2636C98.6465 60.1827 99.7042 60.5201 100.528 61.2044C100.495 61.1722 100.461 61.1398 100.426 61.1087C99.6101 60.3776 98.5371 60.0007 97.4431 60.0608C96.3492 60.1209 95.3239 60.6131 94.5928 61.4292C93.8618 62.2452 93.4848 63.3182 93.5449 64.4122C93.605 65.5062 94.0972 66.5314 94.9133 67.2625C94.9211 67.2695 94.929 67.2765 94.9369 67.2835C94.9719 67.3146 95.008 67.3441 95.0438 67.3739C94.2677 66.6356 93.8088 65.6246 93.764 64.5543C93.7191 63.4841 94.0919 62.4382 94.8035 61.6376L94.8033 61.6376Z" fill="#2F2E41"/>
<path d="M98.0106 68.2966C99.48 68.2966 100.671 67.1054 100.671 65.636C100.671 64.1666 99.48 62.9754 98.0106 62.9754C96.5412 62.9754 95.35 64.1666 95.35 65.636C95.35 67.1054 96.5412 68.2966 98.0106 68.2966Z" fill="#A0616A"/>
<path d="M102.772 72.5682V73.461C102.608 73.5654 102.443 73.6631 102.275 73.7557C102.207 73.7928 102.14 73.8281 102.073 73.8635L102.032 73.8837C101.948 73.9258 101.865 73.9696 101.779 74.0101C101.778 74.0117 101.774 74.0117 101.773 74.0134C101.391 74.1958 100.998 74.3517 100.595 74.48C100.594 74.48 100.592 74.4817 100.59 74.4817C99.9528 74.6833 99.2955 74.816 98.6297 74.8775C98.3383 74.9061 98.0435 74.9196 97.7454 74.9196C96.9283 74.9198 96.1146 74.8134 95.3251 74.6029C94.9223 74.497 94.5272 74.3637 94.1426 74.2038C94.1393 74.2021 94.1375 74.2021 94.1342 74.2004C94.0954 74.1835 94.0533 74.1667 94.0146 74.1499C93.8243 74.0673 93.639 73.9781 93.4571 73.8837L93.3779 73.8433C93.1842 73.7406 92.9939 73.6328 92.8069 73.5165L92.7968 73.5115C92.5089 73.3321 92.2312 73.137 91.9648 72.927C91.8283 72.8226 91.697 72.7131 91.5689 72.5986C91.5016 72.5413 91.4342 72.4807 91.3702 72.4217C91.1241 72.1944 90.8907 71.9538 90.6711 71.7008C90.7003 71.5254 90.7431 71.3525 90.7992 71.1837L90.8008 71.182C90.8109 71.1533 90.8227 71.1251 90.8362 71.0978C90.8455 71.0736 90.8562 71.05 90.8682 71.0271C91.1697 70.4628 91.7155 70.323 92.3926 70.2927C92.7749 70.2758 93.1977 70.2944 93.6441 70.2893C93.8799 70.2876 94.1241 70.2792 94.3683 70.2573C95.9095 70.1175 95.6299 69.208 95.6989 68.7178C95.768 68.2428 96.1959 68.6538 96.2245 68.6808L96.2261 68.6825C97.0983 69.0906 98.0632 69.2598 99.0222 69.1726C99.1872 69.1524 99.3523 69.1406 99.5173 69.1355C99.9519 69.1305 99.8576 69.2551 99.7077 69.3579C99.635 69.4058 99.559 69.4485 99.4803 69.4859C99.4803 69.4859 99.4112 69.907 99.3405 70.5369C99.2732 71.1399 100.429 71.4229 100.525 71.4448C100.527 71.4461 100.529 71.4467 100.531 71.4465C100.953 71.337 101.398 71.3487 101.813 71.4802H101.815C102.052 71.5675 102.264 71.7128 102.431 71.9028C102.598 72.0928 102.715 72.3215 102.772 72.5682V72.5682Z" fill="#FAAA5F"/>
<path d="M94.1593 73.6513C94.1593 73.7759 94.156 73.8955 94.1509 74.0083C94.1493 74.0757 94.1459 74.1414 94.1426 74.2037C94.1392 74.202 94.1375 74.202 94.1341 74.2004C94.0953 74.1835 94.0532 74.1667 94.0145 74.1498C93.8242 74.0673 93.6389 73.978 93.457 73.8837L93.3779 73.8433C93.1841 73.7405 92.9938 73.6327 92.8068 73.5165C92.8119 73.4576 92.8203 73.3986 92.8287 73.3396C92.8472 73.21 92.8624 73.0786 92.8725 72.9489C92.9388 72.0377 92.7736 71.1246 92.3925 70.2944V70.2927C92.3588 70.2253 92.3386 70.1882 92.3386 70.1882C92.3386 70.1882 92.8287 69.7672 93.5277 70.1882C93.5724 70.2145 93.6118 70.2487 93.644 70.2893C94.0651 70.7862 94.1796 72.4571 94.1593 73.6513Z" fill="#2F2E41"/>
<path d="M101.808 73.4222C101.801 73.6109 101.791 73.8079 101.779 74.0084V74.01C101.778 74.0117 101.774 74.0117 101.773 74.0134C101.391 74.1958 100.998 74.3517 100.595 74.48C100.594 74.48 100.592 74.4817 100.59 74.4817L100.572 74.0084L100.57 73.946L100.481 71.6419C100.478 71.5897 100.487 71.5376 100.505 71.4887C100.523 71.4398 100.551 71.3951 100.587 71.3573C100.623 71.3195 100.667 71.2895 100.715 71.2689C100.763 71.2483 100.814 71.2377 100.866 71.2376H101.72C101.763 71.2376 101.793 71.3235 101.813 71.4785V71.4802C101.855 72.1269 101.853 72.7757 101.808 73.4222V73.4222Z" fill="#2F2E41"/>
<path d="M95.7349 62.3103V64.9716H96.351L97.1351 64.1314L97.0301 64.9716H99.7537L99.5853 64.1314L99.9222 64.9716H100.356V62.3103H95.7349Z" fill="#2F2E41"/>
<path d="M95.3149 65.4611C95.4309 65.4611 95.5249 65.2887 95.5249 65.076C95.5249 64.8634 95.4309 64.691 95.3149 64.691C95.1989 64.691 95.1049 64.8634 95.1049 65.076C95.1049 65.2887 95.1989 65.4611 95.3149 65.4611Z" fill="#A0616A"/>
<path d="M100.706 65.4611C100.822 65.4611 100.916 65.2887 100.916 65.076C100.916 64.8634 100.822 64.691 100.706 64.691C100.59 64.691 100.496 64.8634 100.496 65.076C100.496 65.2887 100.59 65.4611 100.706 65.4611Z" fill="#A0616A"/>
<path d="M103.342 73.0668C103.201 73.1729 103.054 73.2773 102.906 73.375C102.861 73.4053 102.817 73.434 102.771 73.4609C102.608 73.5653 102.443 73.663 102.275 73.7557C102.207 73.7927 102.14 73.8281 102.073 73.8635V72.0073C102.073 72.0073 102.342 72.2229 102.771 72.5817C102.825 72.6272 102.881 72.6743 102.94 72.7249C103.065 72.8293 103.199 72.9438 103.342 73.0668Z" fill="#FAAA5F"/>
<path d="M106.438 62.7889C105.99 61.5 105.265 60.3245 104.316 59.3444C103.366 58.3642 102.214 57.603 100.94 57.1138C99.666 56.6246 98.3005 56.4192 96.9389 56.512C95.5774 56.6047 94.2524 56.9934 93.0564 57.6508C91.8605 58.3082 90.8223 59.2186 90.0144 60.3185C89.2064 61.4183 88.6481 62.6812 88.3783 64.019C88.1086 65.3568 88.1339 66.7374 88.4526 68.0644C88.7712 69.3914 89.3754 70.633 90.2232 71.7025C90.3074 71.8086 90.395 71.9147 90.4842 72.0174C90.491 72.0242 90.496 72.0309 90.5028 72.0376C90.7224 72.2906 90.9557 72.5313 91.2018 72.7585C91.2658 72.8175 91.3332 72.8781 91.4005 72.9354C91.5286 73.0499 91.6599 73.1594 91.7964 73.2639C92.0628 73.4738 92.3405 73.6689 92.6284 73.8483L92.6385 73.8534C92.8255 73.9696 93.0158 74.0774 93.2095 74.1801L93.2887 74.2206C93.4706 74.3149 93.6559 74.4042 93.8462 74.4867C93.8849 74.5035 93.927 74.5204 93.9658 74.5372C93.9691 74.5389 93.9709 74.5389 93.9742 74.5406C94.3588 74.7005 94.7539 74.8339 95.1567 74.9398C95.9462 75.1502 96.7599 75.2567 97.577 75.2564C97.8751 75.2564 98.1699 75.243 98.4613 75.2143C99.1271 75.1529 99.7844 75.0202 100.422 74.8185C100.424 74.8185 100.425 74.8168 100.427 74.8168C100.83 74.6885 101.223 74.5326 101.604 74.3502C101.606 74.3486 101.609 74.3486 101.611 74.3469C101.697 74.3065 101.779 74.2627 101.864 74.2206L101.904 74.2003C101.972 74.165 102.039 74.1296 102.106 74.0925C102.275 73.9999 102.44 73.9022 102.603 73.7978C102.649 73.7708 102.692 73.7422 102.738 73.7119C102.886 73.6142 103.033 73.5097 103.174 73.4036C103.199 73.3851 103.226 73.3666 103.252 73.3464C104.83 72.1486 105.988 70.482 106.56 68.5854C107.133 66.6888 107.09 64.6597 106.438 62.7889V62.7889ZM102.942 72.9371C102.886 72.9809 102.829 73.023 102.772 73.0617C102.716 73.1038 102.66 73.1443 102.603 73.1813C102.554 73.2167 102.505 73.2504 102.455 73.2824C102.413 73.311 102.371 73.338 102.329 73.3649C102.189 73.4525 102.047 73.5367 101.904 73.6176L101.859 73.6428C101.795 73.6782 101.731 73.7119 101.667 73.7456C101.658 73.7506 101.648 73.754 101.64 73.759L101.63 73.7641C101.549 73.8062 101.466 73.8466 101.384 73.8854C101.065 74.0388 100.737 74.1715 100.402 74.2829C100.358 74.298 100.314 74.3132 100.27 74.3267C99.6669 74.5186 99.0446 74.6451 98.4142 74.704C98.1379 74.7292 97.8583 74.7427 97.577 74.7427C96.8041 74.7443 96.0344 74.6435 95.288 74.4429C94.9049 74.3429 94.5295 74.2157 94.1646 74.0622C94.1258 74.0471 94.0871 74.0302 94.05 74.0151C94.0298 74.0066 94.0113 73.9982 93.991 73.9881C93.8327 73.919 93.6761 73.8433 93.5228 73.7641L93.4487 73.7254C93.2618 73.6277 93.0781 73.5232 92.8996 73.4121C92.8339 73.3716 92.7682 73.3295 92.7042 73.2857C92.5021 73.1527 92.305 73.0095 92.113 72.8596C91.9833 72.7619 91.8587 72.6575 91.7374 72.5497C91.6734 72.4958 91.6111 72.4368 91.5505 72.3812C91.3116 72.1607 91.0856 71.9268 90.8733 71.6806C90.8026 71.5997 90.7335 71.5189 90.6678 71.4346C90.6529 71.418 90.6388 71.4006 90.6257 71.3824C89.5313 70.0015 88.8731 68.3258 88.7349 66.5692C88.5967 64.8127 88.9849 63.0547 89.8498 61.5196C90.7148 59.9845 92.0174 58.7418 93.5915 57.95C95.1656 57.1582 96.9398 56.8532 98.688 57.0739C100.436 57.2945 102.079 58.0309 103.407 59.189C104.735 60.3471 105.688 61.8745 106.144 63.5764C106.6 65.2783 106.54 67.0776 105.969 68.7447C105.399 70.4119 104.345 71.8714 102.942 72.9371V72.9371Z" fill="#3F3D56"/>
<path d="M97.6299 102.576C99.6603 102.576 101.306 100.931 101.306 98.9002C101.306 96.8698 99.6603 95.2238 97.6299 95.2238C95.5996 95.2238 93.9536 96.8698 93.9536 98.9002C93.9536 100.931 95.5996 102.576 97.6299 102.576Z" fill="#2F2E41"/>
<path d="M94.7604 96.918C95.3545 96.3239 95.4749 95.4811 95.0293 95.0356C94.5837 94.59 93.7409 94.7104 93.1468 95.3045C92.5528 95.8986 92.4324 96.7414 92.8779 97.187C93.3235 97.6325 94.1663 97.5121 94.7604 96.918Z" fill="#2F2E41"/>
<path d="M101.462 95.7506C101.709 95.1711 101.284 94.4338 100.511 94.1038C99.7383 93.7737 98.9113 93.9759 98.6638 94.5554C98.4162 95.1349 98.8419 95.8722 99.6145 96.2022C100.387 96.5322 101.214 96.33 101.462 95.7506Z" fill="#2F2E41"/>
<path d="M102.027 106.031L101.594 105.35C101.41 104.939 101.071 104.618 100.651 104.457C100.231 104.296 99.7648 104.308 99.3535 104.49C98.9423 104.672 98.6201 105.01 98.4574 105.43C98.2948 105.849 98.305 106.316 98.4858 106.728L98.609 107.169L98.7491 107.67C99.3166 107.599 99.8765 107.477 100.422 107.305C100.424 107.305 100.425 107.304 100.426 107.303C100.83 107.175 101.224 107.019 101.605 106.836C101.607 106.834 101.609 106.834 101.611 106.832C101.696 106.791 101.779 106.749 101.864 106.707C101.878 106.7 101.891 106.693 101.904 106.685C101.972 106.651 102.04 106.615 102.106 106.579C102.174 106.543 102.24 106.505 102.303 106.464L102.027 106.031Z" fill="#CACACA"/>
<path d="M97.7465 102.898C99.4697 102.898 100.867 101.501 100.867 99.7778C100.867 98.0546 99.4697 96.6577 97.7465 96.6577C96.0234 96.6577 94.6265 98.0546 94.6265 99.7778C94.6265 101.501 96.0234 102.898 97.7465 102.898Z" fill="#FFB6B6"/>
<path d="M102.253 105.898C101.908 105.325 101.481 104.807 100.985 104.36C100.645 104.057 100.205 103.889 99.7492 103.889H95.354C95.1007 103.889 94.8501 103.941 94.6177 104.041C94.3853 104.142 94.1759 104.289 94.0026 104.474C93.8293 104.658 93.6957 104.877 93.61 105.115C93.5244 105.353 93.4885 105.607 93.5046 105.859C93.5142 106.002 93.5399 106.143 93.5811 106.28C93.6125 106.379 93.6515 106.475 93.6979 106.569L93.9144 107.002C93.9314 107.008 93.9484 107.017 93.9653 107.023C93.9696 107.025 93.9718 107.025 93.9738 107.027C94.063 107.063 94.1523 107.099 94.2435 107.133C94.5423 107.248 94.8471 107.345 95.1566 107.426C95.6547 107.56 96.1632 107.652 96.6767 107.7C96.9762 107.728 97.2756 107.743 97.5771 107.743C97.8765 107.743 98.1694 107.728 98.4624 107.7C98.558 107.692 98.6535 107.681 98.7491 107.671C99.3166 107.599 99.8765 107.477 100.422 107.305C100.424 107.305 100.425 107.304 100.426 107.303C100.83 107.176 101.224 107.019 101.605 106.836C101.607 106.834 101.609 106.834 101.611 106.832C101.696 106.791 101.779 106.749 101.864 106.707C101.878 106.7 101.891 106.693 101.904 106.685C101.972 106.651 102.04 106.615 102.106 106.579C102.174 106.543 102.24 106.505 102.303 106.464C102.371 106.428 102.435 106.388 102.501 106.348C102.42 106.188 102.337 106.04 102.253 105.898Z" fill="#CACACA"/>
<path d="M96.1502 104.458C95.7435 104.268 95.278 104.246 94.8554 104.398C94.4329 104.55 94.0877 104.863 93.8954 105.269L93.5046 105.859L93.3178 106.142L93.0333 106.571C93.0927 106.602 93.1501 106.634 93.2096 106.666L93.2881 106.707C93.4707 106.8 93.6554 106.889 93.8466 106.972C93.8677 106.983 93.8911 106.991 93.9145 107.002C93.9315 107.008 93.9485 107.017 93.9654 107.023C93.9696 107.025 93.9718 107.025 93.9739 107.027C94.063 107.063 94.1523 107.099 94.2435 107.133C94.5423 107.248 94.8471 107.345 95.1566 107.426C95.6547 107.56 96.1633 107.652 96.6768 107.7L96.8254 107.197L96.9699 106.717C97.1602 106.309 97.1808 105.842 97.0271 105.418C96.8735 104.995 96.5581 104.649 96.1502 104.458V104.458Z" fill="#CACACA"/>
<path d="M94.4681 97.8153C95.1811 98.3067 96.0274 98.5683 96.8933 98.5648C96.5844 98.779 96.2328 98.9236 95.8626 98.9888C97.0139 99.2358 98.2038 99.2425 99.3578 99.0085C99.6143 98.9673 99.8618 98.8823 100.089 98.7572C100.203 98.6938 100.302 98.6073 100.38 98.5032C100.457 98.3992 100.512 98.2799 100.541 98.1532C100.618 97.7151 100.276 97.3171 99.9217 97.0489C99.3785 96.6444 98.7523 96.3658 98.0883 96.2331C97.4242 96.1004 96.739 96.117 96.0822 96.2816C95.6445 96.3697 95.2462 96.5947 94.945 96.9242C94.7993 97.0919 94.7113 97.302 94.694 97.5235C94.6768 97.745 94.7313 97.9662 94.8493 98.1544L94.4681 97.8153Z" fill="#2F2E41"/>
<path d="M106.439 95.2749C105.991 93.9859 105.267 92.8102 104.317 91.8299C103.367 90.8496 102.215 90.0883 100.941 89.599C99.667 89.1097 98.3015 88.9042 96.9398 88.997C95.5781 89.0897 94.253 89.4783 93.057 90.1358C91.8609 90.7932 90.8227 91.7037 90.0147 92.8036C89.2067 93.9036 88.6484 95.1666 88.3786 96.5045C88.1089 97.8424 88.1343 99.2231 88.4531 100.55C88.7718 101.877 89.3762 103.119 90.2241 104.188C90.3068 104.295 90.3961 104.401 90.4853 104.503C90.4904 104.51 90.4961 104.517 90.5023 104.524C90.7222 104.777 90.9561 105.017 91.2029 105.244C91.2666 105.303 91.3324 105.365 91.4004 105.422C91.5277 105.537 91.6594 105.645 91.7974 105.749C91.8505 105.791 91.9036 105.834 91.9588 105.874C92.1732 106.038 92.3983 106.188 92.6276 106.335C92.6315 106.335 92.6353 106.337 92.6382 106.339C92.704 106.38 92.772 106.42 92.8399 106.458C92.9036 106.496 92.9694 106.535 93.0332 106.571C93.0926 106.603 93.1499 106.634 93.2094 106.666L93.2879 106.707C93.4706 106.8 93.6553 106.889 93.8464 106.972C93.8676 106.983 93.891 106.991 93.9143 107.002C93.9313 107.008 93.9483 107.017 93.9652 107.023C93.9695 107.025 93.9717 107.025 93.9737 107.027C94.0629 107.063 94.1522 107.099 94.2434 107.133C94.5422 107.248 94.847 107.345 95.1565 107.426C95.6546 107.56 96.1631 107.652 96.6766 107.7C96.9761 107.728 97.2755 107.743 97.577 107.743C97.8764 107.743 98.1693 107.728 98.4623 107.7C98.5579 107.692 98.6534 107.681 98.749 107.671C99.3165 107.599 99.8764 107.477 100.422 107.305C100.424 107.305 100.425 107.304 100.426 107.303C100.83 107.176 101.224 107.019 101.605 106.836C101.607 106.834 101.609 106.834 101.611 106.832C101.696 106.791 101.779 106.749 101.864 106.707C101.878 106.7 101.891 106.693 101.904 106.685C101.972 106.651 102.04 106.615 102.106 106.579C102.174 106.543 102.24 106.505 102.303 106.465C102.371 106.428 102.435 106.388 102.501 106.348C102.535 106.327 102.569 106.305 102.603 106.284C102.649 106.256 102.692 106.229 102.739 106.197C102.802 106.157 102.866 106.112 102.928 106.067C103.01 106.01 103.093 105.951 103.174 105.889C103.201 105.871 103.227 105.852 103.252 105.832C104.829 104.633 105.987 102.967 106.559 101.07C107.131 99.1744 107.09 97.1458 106.439 95.2749L106.439 95.2749ZM102.942 105.422C102.887 105.467 102.83 105.509 102.773 105.547C102.715 105.59 102.66 105.63 102.603 105.668C102.554 105.702 102.505 105.736 102.454 105.768C102.45 105.772 102.445 105.776 102.439 105.779C102.403 105.804 102.365 105.828 102.329 105.851C102.303 105.866 102.278 105.883 102.252 105.898C102.178 105.944 102.104 105.989 102.027 106.031C101.987 106.057 101.944 106.08 101.904 106.104C101.889 106.112 101.874 106.121 101.86 106.129C101.794 106.165 101.73 106.197 101.666 106.231C101.658 106.237 101.647 106.239 101.641 106.246C101.637 106.246 101.633 106.247 101.63 106.25C101.55 106.293 101.467 106.333 101.384 106.371C101.065 106.525 100.737 106.657 100.401 106.768C100.358 106.783 100.314 106.8 100.271 106.813C99.7299 106.985 99.1731 107.104 98.6088 107.169C98.5452 107.178 98.4793 107.184 98.4135 107.191C98.1375 107.216 97.8594 107.229 97.577 107.229C97.3264 107.229 97.0737 107.218 96.8253 107.197C96.306 107.154 95.7915 107.064 95.2881 106.93C94.9049 106.83 94.5295 106.702 94.1649 106.547C94.1457 106.539 94.1267 106.532 94.1076 106.524C94.0863 106.515 94.0693 106.509 94.0503 106.501C94.029 106.492 94.012 106.484 93.9908 106.473C93.8528 106.414 93.7148 106.348 93.581 106.28C93.5619 106.269 93.5428 106.261 93.5237 106.25L93.4494 106.212C93.4048 106.188 93.3602 106.165 93.3177 106.142C93.1755 106.065 93.0353 105.983 92.8995 105.898C92.8485 105.866 92.7933 105.832 92.7423 105.798L92.704 105.772C92.5851 105.692 92.4663 105.611 92.3495 105.524C92.2709 105.464 92.1902 105.407 92.1138 105.346C91.9843 105.248 91.859 105.144 91.738 105.036C91.6743 104.982 91.6106 104.923 91.5512 104.868C91.3121 104.648 91.0859 104.414 90.8739 104.167C90.8038 104.086 90.7337 104.006 90.6679 103.921C90.6531 103.904 90.6403 103.887 90.6254 103.868C89.5307 102.487 88.8723 100.811 88.734 99.0541C88.5956 97.2972 88.9837 95.539 89.8487 94.0037C90.7137 92.4683 92.0164 91.2254 93.5907 90.4334C95.1649 89.6414 96.9394 89.3362 98.6878 89.5569C100.436 89.7775 102.079 90.5139 103.407 91.6721C104.736 92.8303 105.689 94.3579 106.145 96.06C106.602 97.7621 106.541 99.5616 105.97 101.229C105.4 102.896 104.346 104.356 102.942 105.422H102.942Z" fill="#3F3D56"/>
<path d="M113.275 49.4309C110.008 46.6739 106.01 44.926 101.767 44.3999C97.5247 43.8738 93.2207 44.5922 89.379 46.4676C85.5373 48.343 82.3235 51.2946 80.1287 54.9632C77.9339 58.6318 76.8527 62.8592 77.0167 67.1311C77.1807 71.403 78.5828 75.5351 81.0524 79.0246C83.522 82.5142 86.9527 85.2107 90.9268 86.786C94.901 88.3614 99.2474 88.7476 103.437 87.8978C107.627 87.048 111.479 84.9987 114.525 81.9994L141.576 104.824C141.988 105.171 142.52 105.339 143.056 105.294C143.592 105.248 144.088 104.992 144.435 104.581C144.783 104.17 144.953 103.638 144.909 103.102C144.865 102.566 144.61 102.069 144.2 101.721L144.197 101.718L117.146 78.8931C120.289 74.3831 121.634 68.8621 120.918 63.4121C120.202 57.9621 117.476 52.976 113.275 49.4309V49.4309ZM111.531 76.6952C109.424 79.1927 106.623 81.0092 103.484 81.915C100.344 82.8208 97.0061 82.7752 93.8923 81.784C90.7785 80.7928 88.0285 78.9005 85.9902 76.3464C83.9518 73.7923 82.7166 70.6911 82.4407 67.435C82.1649 64.1789 82.8608 60.9141 84.4404 58.0535C86.02 55.1929 88.4125 52.865 91.3151 51.3641C94.2178 49.8632 97.5004 49.2567 100.748 49.6214C103.995 49.986 107.061 51.3055 109.559 53.4128V53.4128C112.908 56.2387 114.997 60.2792 115.367 64.6455C115.737 69.0118 114.357 73.3462 111.531 76.6952V76.6952Z" fill="#3F3D56"/>
<path opacity="0.3" d="M88.2489 78.6677C85.0793 75.9929 83.0315 72.224 82.5121 68.1093C81.9928 63.9946 83.0398 59.835 85.4453 56.4565C85.1294 56.7747 84.824 57.1079 84.5291 57.4561C83.1299 59.1144 82.0709 61.032 81.4128 63.0995C80.7547 65.167 80.5102 67.3439 80.6934 69.5058C80.8765 71.6678 81.4837 73.7725 82.4803 75.6998C83.4769 77.6271 84.8433 79.3393 86.5016 80.7385C88.1598 82.1377 90.0774 83.1967 92.1449 83.8548C94.2124 84.5129 96.3893 84.7574 98.5513 84.5742C100.713 84.3911 102.818 83.7839 104.745 82.7873C106.673 81.7907 108.385 80.4243 109.784 78.766C110.078 78.4174 110.355 78.0603 110.615 77.6948C107.689 80.6344 103.765 82.3662 99.6219 82.5464C95.4785 82.7267 91.4188 81.3421 88.2489 78.6677Z" fill="black"/>
<path d="M167.809 105.678C168.02 105.42 168.172 105.119 168.255 104.795C168.337 104.472 168.347 104.135 168.285 103.807C168.223 103.48 168.09 103.17 167.895 102.899C167.7 102.629 167.448 102.404 167.157 102.241L162.227 82.0599L158.63 83.2082L163.954 103.252C163.713 103.759 163.666 104.337 163.823 104.876C163.98 105.415 164.329 105.878 164.804 106.177C165.279 106.476 165.847 106.59 166.401 106.498C166.955 106.406 167.456 106.114 167.809 105.678H167.809Z" fill="#FFB6B6"/>
<path d="M165.26 92.7688L162.632 95.0364L158.954 98.2067L157.33 89.8962L157.16 89.032L157.026 88.3462L160.753 81.8554L163.859 82.0335L164.071 82.0463L164.075 82.0932L164.124 82.5285L164.761 88.2568L164.776 88.3951L165.26 92.7688Z" fill="#3F3D56"/>
<path d="M148.079 149.179L145.476 149.178L144.238 139.138L148.08 139.138L148.079 149.179Z" fill="#FFB6B6"/>
<path d="M148.743 151.702L140.35 151.702V151.595C140.35 150.729 140.694 149.898 141.307 149.285C141.919 148.673 142.75 148.329 143.617 148.328H143.617L148.743 148.329L148.743 151.702Z" fill="#2F2E41"/>
<path d="M175.257 149.391L172.654 149.391L171.415 139.35L175.257 139.35L175.257 149.391Z" fill="#FFB6B6"/>
<path d="M175.921 151.914L167.527 151.914V151.808C167.527 150.941 167.872 150.11 168.484 149.498C169.097 148.885 169.928 148.541 170.794 148.541H170.795L175.921 148.541L175.921 151.914Z" fill="#2F2E41"/>
<path d="M177.337 145.394L170.331 146.456L160.137 111.957L149.31 146.668L141.454 145.606L151.646 105.264V102.079L153.026 97.3021L152.882 96.009L151.877 86.966L151.442 83.0444L151.414 82.791C151.39 82.5784 151.446 82.3646 151.572 82.1913C151.697 82.0179 151.882 81.8974 152.092 81.8532V81.8532L155.362 81.1653H160.706L163.859 82.0337L164.075 82.0931L164.173 82.1208L164.124 82.5284L163.385 88.7241L163.345 89.0638L162.632 95.0366L162.475 96.3466C168.632 100.805 168.844 105.264 168.844 105.264L177.337 145.394Z" fill="#2F2E41"/>
<path d="M157.388 78.479C160.268 78.479 162.603 76.1442 162.603 73.264C162.603 70.3839 160.268 68.0491 157.388 68.0491C154.508 68.0491 152.173 70.3839 152.173 73.264C152.173 76.1442 154.508 78.479 157.388 78.479Z" fill="#FFB6B6"/>
<path d="M162.865 95.1482L152.549 96.4973L152.742 97.9711L163.058 96.622L162.865 95.1482Z" fill="#3F3D56"/>
<path d="M138.711 96.9416C138.81 97.0054 138.904 97.0769 138.991 97.1554L149.195 94.5543L149.891 92.0927L153.743 92.6577L152.934 97.1352C152.869 97.4969 152.688 97.8277 152.419 98.0778C152.149 98.328 151.806 98.484 151.441 98.5225L139.527 99.7772C139.332 100.186 139.018 100.526 138.626 100.752C138.234 100.978 137.782 101.079 137.331 101.042C136.88 101.005 136.451 100.832 136.101 100.545C135.751 100.258 135.496 99.8717 135.371 99.4367C135.246 99.0018 135.257 98.539 135.401 98.11C135.545 97.6811 135.817 97.3062 136.179 97.0354C136.542 96.7645 136.979 96.6104 137.431 96.5937C137.883 96.5769 138.33 96.6983 138.711 96.9416V96.9416Z" fill="#FFB6B6"/>
<path d="M154.406 83.1823L152.601 81.8022C152.113 81.6171 151.445 82.143 151.327 82.6515L148.78 93.0555L154.088 96.8774L154.831 95.7096L154.406 83.1823Z" fill="#3F3D56"/>
<g opacity="0.2">
<path opacity="0.2" d="M164.761 88.257C164.311 88.4358 163.852 88.5917 163.385 88.7241C163.237 88.7687 163.084 88.8111 162.933 88.8515C161.94 89.1272 160.918 89.2924 159.888 89.3441C159.445 89.3628 159.001 89.3508 158.559 89.308C158.085 89.2607 157.617 89.1683 157.16 89.032C157.145 89.0277 157.128 89.0235 157.113 89.0192C156.164 88.7497 155.294 88.2551 154.576 87.5775C154.416 87.4214 154.266 87.2547 154.128 87.0786C153.732 86.593 153.441 86.0301 153.274 85.4257C153.107 84.8214 153.068 84.189 153.16 83.5688C153.178 83.4564 153.202 83.3451 153.232 83.2355C153.312 82.9366 153.418 82.6454 153.548 82.3649C153.606 82.2333 153.669 82.1038 153.737 81.9764L156.137 81.1653H160.706L163.859 82.0337L164.071 82.0464L164.076 82.0931L164.173 82.1208L164.124 82.5284L164.761 88.257Z" fill="black"/>
</g>
<path d="M153.392 68.9466C152.417 68.827 151.346 68.9116 150.586 69.5342C149.826 70.1568 149.581 71.451 150.3 72.1199C150.938 72.7121 151.934 72.5729 152.787 72.7413C153.522 72.9061 154.181 73.3127 154.658 73.8962C155.135 74.4796 155.402 75.2061 155.417 75.9594C155.404 78.1197 153.331 79.7556 152.958 81.8835C152.704 83.3358 153.317 84.8642 154.376 85.89C155.435 86.9159 156.89 87.4703 158.357 87.6205C159.824 87.7706 161.307 87.5413 162.732 87.1645C164.163 86.7861 165.573 86.2492 166.774 85.3835C167.975 84.5177 168.959 83.2972 169.345 81.8678C169.73 80.4384 169.453 78.7995 168.46 77.702C167.322 76.4452 165.429 76.0131 164.445 74.6327C163.341 73.0853 163.75 70.8817 162.857 69.2041C162.26 68.084 161.132 67.3201 159.928 66.9176C158.725 66.5152 157.44 66.4357 156.172 66.3968C155.505 66.3763 154.818 66.3694 154.197 66.6125C153.576 66.8555 153.03 67.4094 152.998 68.0755C152.966 68.7417 153.392 68.9466 153.392 68.9466Z" fill="#2F2E41"/>
<path d="M202.214 152H121.318C121.261 152 121.207 151.978 121.167 151.938C121.128 151.898 121.105 151.844 121.105 151.788C121.105 151.731 121.128 151.677 121.167 151.637C121.207 151.598 121.261 151.575 121.318 151.575H202.214C202.27 151.575 202.324 151.598 202.364 151.637C202.404 151.677 202.426 151.731 202.426 151.788C202.426 151.844 202.404 151.898 202.364 151.938C202.324 151.978 202.27 152 202.214 152Z" fill="#CACACA"/>
</g>
<defs>
<clipPath id="clip0_1378:4158">
<rect width="125.426" height="140" fill="white" transform="translate(77 12)"/>
</clipPath>
</defs>
</svg>
