<svg width="262" height="177" viewBox="0 0 262 177" fill="none" xmlns="http://www.w3.org/2000/svg">
<g clip-path="url(#clip0_1378:4159)">
<path d="M77.0941 140.847L80.3061 139.829C80.7063 138.105 80.6798 136.309 80.2287 134.598C78.9383 137.467 75.1524 138.17 72.9953 140.46C72.328 141.18 71.8311 142.04 71.5415 142.978C71.2519 143.915 71.177 144.906 71.3224 145.876L70.6466 148.169C72.2249 148.034 73.7552 147.558 75.1321 146.775C76.5089 145.992 77.6996 144.92 78.6221 143.632C79.1325 142.904 79.5492 142.115 79.8625 141.284C78.4927 141.147 77.0941 140.847 77.0941 140.847Z" fill="#F2F2F2"/>
<path d="M190.922 140.847L187.71 139.829C187.309 138.105 187.336 136.309 187.787 134.598C189.077 137.467 192.863 138.17 195.02 140.46C195.688 141.18 196.185 142.04 196.474 142.978C196.764 143.915 196.839 144.906 196.693 145.876L197.369 148.169C195.791 148.034 194.26 147.558 192.884 146.775C191.507 145.992 190.316 144.92 189.394 143.632C188.883 142.904 188.466 142.115 188.153 141.284C189.523 141.147 190.922 140.847 190.922 140.847Z" fill="#F2F2F2"/>
<path d="M73.6619 136.608L76.0824 134.264C75.6718 132.543 74.8473 130.947 73.6804 129.617C73.805 132.761 70.73 135.078 69.8206 138.09C69.5442 139.031 69.4832 140.023 69.6421 140.991C69.8011 141.96 70.1758 142.88 70.7387 143.683L71.1562 146.037C72.5087 145.212 73.6664 144.104 74.5495 142.789C75.4325 141.474 76.02 139.983 76.2714 138.419C76.4037 137.54 76.4248 136.648 76.3343 135.764C75.0471 136.252 73.6619 136.608 73.6619 136.608Z" fill="#F2F2F2"/>
<path d="M80.1328 92.9589C79.8684 92.9943 79.5995 92.9714 79.3449 92.8916C79.0903 92.8119 78.8563 92.6773 78.6594 92.4973C78.4625 92.3173 78.3074 92.0964 78.2051 91.85C78.1028 91.6036 78.0558 91.3378 78.0674 91.0713L66.4008 79.2339L69.6576 76.9665L80.1014 89.3153C80.5478 89.3643 80.9608 89.5755 81.262 89.9087C81.5632 90.2419 81.7316 90.674 81.7355 91.1231C81.7394 91.5722 81.5784 92.0072 81.283 92.3455C80.9876 92.6839 80.5784 92.9021 80.1329 92.9589L80.1328 92.9589Z" fill="#FFB6B6"/>
<path d="M62.8117 74.1137C62.8117 74.1137 61.9849 74.6092 63.3611 76.1184C64.4629 77.3266 69.2707 83.1354 71.1898 84.3482C71.0857 84.6489 71.0845 84.9756 71.1865 85.277C71.2885 85.5784 71.4879 85.8373 71.7532 86.013L74.7038 82.3309C74.5352 81.2752 73.8234 81.3291 73.4236 81.4573L71.5724 79.1563L67.378 72.121L63.4031 73.7448L62.8117 74.1137Z" fill="#FAAA5F"/>
<path d="M53.598 144.646H55.7976L56.8443 136.163H53.598V144.646Z" fill="#FFB6B6"/>
<path d="M52.8803 143.14L56.3942 142.93V144.436L59.735 146.743C59.9 146.857 60.0243 147.02 60.0897 147.21C60.1551 147.4 60.1581 147.605 60.0985 147.797C60.0388 147.988 59.9195 148.155 59.7579 148.274C59.5964 148.393 59.4011 148.457 59.2006 148.457H55.0172L54.2961 146.968L54.0146 148.457H52.4373L52.8803 143.14Z" fill="#2F2E41"/>
<path d="M65.9528 144.646H68.1523L69.199 136.163H65.9528V144.646Z" fill="#FFB6B6"/>
<path d="M65.2349 143.14L68.7488 142.93V144.436L72.0896 146.743C72.2546 146.857 72.3789 147.02 72.4443 147.21C72.5097 147.4 72.5128 147.605 72.4531 147.797C72.3934 147.988 72.2741 148.155 72.1126 148.274C71.9511 148.393 71.7558 148.457 71.5552 148.457H67.3718L66.6507 146.968L66.3692 148.457H64.7919L65.2349 143.14Z" fill="#2F2E41"/>
<path d="M52.6491 137.33H52.6731L53.096 123.536C52.8223 123.008 52.6834 122.421 52.6916 121.826C52.6999 121.232 52.8551 120.648 53.1434 120.128L53.2039 120.018L53.0469 119.29C52.8452 118.355 52.9378 117.381 53.3119 116.5L53.7065 103.633C52.2967 94.4961 59.0154 88.5375 59.0154 88.5375L57.7876 83.3726L69.943 82.177L69.0801 88.5375L71.2409 95.9614C72.6693 109.878 72.4101 123.44 70.1434 136.579L70.2052 136.61C70.4277 136.687 70.5231 136.995 70.4184 137.299C70.3136 137.602 70.0483 137.786 69.8258 137.709L64.5105 137.524C64.288 137.448 64.1925 137.139 64.2973 136.836C64.402 136.532 64.6673 136.349 64.8898 136.426L65.2512 136.608L64.4805 123.298L64.566 120.866L64.3898 118.108L63.5751 105.702L60.4911 120.958L57.3411 137.484C57.428 137.563 57.4889 137.666 57.516 137.78C57.543 137.894 57.5348 138.014 57.4925 138.123C57.4501 138.232 57.3757 138.326 57.2789 138.392C57.1821 138.458 57.0675 138.493 56.9503 138.493H52.6491C52.495 138.493 52.3471 138.432 52.2381 138.323C52.1291 138.214 52.0679 138.066 52.0679 137.912C52.0679 137.758 52.1291 137.61 52.2381 137.501C52.3471 137.392 52.495 137.33 52.6491 137.33V137.33Z" fill="#2F2E41"/>
<path d="M169.21 86.1366H94.0319C91.5042 86.1338 89.0809 85.1284 87.2936 83.341C85.5063 81.5537 84.5009 79.1304 84.498 76.6027V44.2877C84.5008 41.7647 85.5024 39.3455 87.2839 37.5589C89.0653 35.7723 91.4817 34.7638 94.0047 34.7537C105.68 31.522 118.077 29.9236 130.857 30.0028C143.017 30.0782 155.928 31.6766 169.233 34.7537C171.756 34.7627 174.174 35.7708 175.956 37.5575C177.739 39.3442 178.741 41.764 178.744 44.2877V76.6027C178.741 79.1304 177.735 81.5537 175.948 83.341C174.161 85.1284 171.737 86.1338 169.21 86.1366V86.1366ZM94.0319 35.1523C91.6099 35.155 89.2879 36.1184 87.5753 37.831C85.8626 39.5436 84.8993 41.8657 84.8966 44.2877V76.6027C84.8993 79.0247 85.8626 81.3468 87.5752 83.0594C89.2879 84.772 91.6099 85.7354 94.0319 85.7381H169.21C171.632 85.7354 173.954 84.772 175.666 83.0594C177.379 81.3468 178.342 79.0247 178.345 76.6027V44.2877C178.342 41.8657 177.379 39.5436 175.666 37.831C173.954 36.1184 171.632 35.155 169.21 35.1523L169.165 35.1471C141.634 28.7765 117.075 28.7757 94.0851 35.1451L94.0319 35.1523Z" fill="#607EF5"/>
<path d="M92.7058 77.7032C92.6762 77.7032 92.6469 77.6973 92.6195 77.686C92.5921 77.6747 92.5672 77.658 92.5463 77.6371C92.5253 77.6161 92.5087 77.5913 92.4974 77.5639C92.486 77.5365 92.4802 77.5072 92.4802 77.4776V43.4129C92.4802 43.353 92.504 43.2956 92.5463 43.2533C92.5886 43.211 92.646 43.1873 92.7058 43.1873C92.7656 43.1873 92.823 43.211 92.8653 43.2533C92.9076 43.2956 92.9314 43.353 92.9314 43.4129V77.4776C92.9314 77.5072 92.9256 77.5365 92.9143 77.5639C92.9029 77.5913 92.8863 77.6161 92.8654 77.6371C92.8444 77.658 92.8195 77.6747 92.7922 77.686C92.7648 77.6973 92.7354 77.7032 92.7058 77.7032V77.7032Z" fill="#607EF5"/>
<path d="M112.433 77.7032C112.404 77.7032 112.375 77.6973 112.347 77.686C112.32 77.6747 112.295 77.658 112.274 77.6371C112.253 77.6161 112.236 77.5913 112.225 77.5639C112.214 77.5365 112.208 77.5072 112.208 77.4776V43.4129C112.208 43.353 112.232 43.2956 112.274 43.2533C112.316 43.211 112.374 43.1873 112.433 43.1873C112.493 43.1873 112.551 43.211 112.593 43.2533C112.635 43.2956 112.659 43.353 112.659 43.4129V77.4776C112.659 77.5072 112.653 77.5365 112.642 77.5639C112.631 77.5913 112.614 77.6161 112.593 77.6371C112.572 77.658 112.547 77.6747 112.52 77.686C112.492 77.6973 112.463 77.7032 112.433 77.7032V77.7032Z" fill="#607EF5"/>
<path d="M132.161 77.7032C132.131 77.7032 132.102 77.6973 132.075 77.686C132.047 77.6747 132.022 77.658 132.001 77.6371C131.981 77.6161 131.964 77.5913 131.953 77.5639C131.941 77.5365 131.935 77.5072 131.935 77.4776V43.4129C131.935 43.353 131.959 43.2956 132.002 43.2533C132.044 43.211 132.101 43.1873 132.161 43.1873C132.221 43.1873 132.278 43.211 132.321 43.2533C132.363 43.2956 132.387 43.353 132.387 43.4129V77.4776C132.387 77.5072 132.381 77.5365 132.369 77.5639C132.358 77.5913 132.342 77.6161 132.321 77.6371C132.3 77.658 132.275 77.6747 132.247 77.686C132.22 77.6973 132.191 77.7032 132.161 77.7032V77.7032Z" fill="#607EF5"/>
<path d="M151.889 77.7032C151.859 77.7032 151.83 77.6973 151.802 77.686C151.775 77.6747 151.75 77.658 151.729 77.6371C151.708 77.6161 151.692 77.5913 151.68 77.5639C151.669 77.5365 151.663 77.5072 151.663 77.4776V43.4129C151.663 43.353 151.687 43.2956 151.729 43.2533C151.771 43.211 151.829 43.1873 151.889 43.1873C151.949 43.1873 152.006 43.211 152.048 43.2533C152.091 43.2956 152.114 43.353 152.114 43.4129V77.4776C152.114 77.5072 152.108 77.5365 152.097 77.5639C152.086 77.5913 152.069 77.6161 152.048 77.6371C152.027 77.658 152.002 77.6747 151.975 77.686C151.948 77.6973 151.918 77.7032 151.889 77.7032V77.7032Z" fill="#607EF5"/>
<path d="M90.9489 48.489C90.9488 48.4594 90.9547 48.4301 90.966 48.4027C90.9773 48.3753 90.994 48.3504 91.0149 48.3295C91.0359 48.3085 91.0607 48.2919 91.0881 48.2806C91.1155 48.2693 91.1448 48.2634 91.1744 48.2634H172.067C172.097 48.2634 172.126 48.2693 172.154 48.2806C172.181 48.2919 172.206 48.3086 172.227 48.3295C172.248 48.3505 172.264 48.3753 172.276 48.4027C172.287 48.4301 172.293 48.4594 172.293 48.489C172.293 48.5186 172.287 48.548 172.276 48.5754C172.264 48.6027 172.248 48.6276 172.227 48.6485C172.206 48.6695 172.181 48.6861 172.154 48.6974C172.126 48.7088 172.097 48.7146 172.067 48.7146H91.1744C91.1448 48.7146 91.1155 48.7088 91.0881 48.6975C91.0607 48.6861 91.0359 48.6695 91.0149 48.6486C90.994 48.6276 90.9773 48.6027 90.966 48.5754C90.9547 48.548 90.9488 48.5186 90.9489 48.489V48.489Z" fill="#607EF5"/>
<path d="M90.9489 73.5969C90.9488 73.5672 90.9547 73.5379 90.966 73.5105C90.9773 73.4832 90.994 73.4583 91.0149 73.4373C91.0359 73.4164 91.0607 73.3998 91.0881 73.3884C91.1155 73.3771 91.1448 73.3713 91.1744 73.3713H172.067C172.127 73.3713 172.185 73.395 172.227 73.4373C172.269 73.4797 172.293 73.537 172.293 73.5969C172.293 73.6567 172.269 73.7141 172.227 73.7564C172.185 73.7987 172.127 73.8225 172.067 73.8225H91.1744C91.1448 73.8225 91.1155 73.8166 91.0881 73.8053C91.0607 73.794 91.0359 73.7774 91.0149 73.7564C90.994 73.7355 90.9773 73.7106 90.966 73.6832C90.9547 73.6558 90.9488 73.6265 90.9489 73.5969Z" fill="#607EF5"/>
<path d="M90.9489 61.043C90.9488 61.0133 90.9547 60.984 90.966 60.9566C90.9773 60.9293 90.994 60.9044 91.0149 60.8834C91.0359 60.8625 91.0607 60.8459 91.0881 60.8345C91.1155 60.8232 91.1448 60.8174 91.1744 60.8174H172.067C172.127 60.8174 172.185 60.8411 172.227 60.8835C172.269 60.9258 172.293 60.9831 172.293 61.043C172.293 61.1028 172.269 61.1602 172.227 61.2025C172.185 61.2448 172.127 61.2686 172.067 61.2686H91.1744C91.1448 61.2686 91.1155 61.2627 91.0881 61.2514C91.0607 61.2401 91.0359 61.2235 91.0149 61.2025C90.994 61.1816 90.9773 61.1567 90.966 61.1293C90.9547 61.1019 90.9488 61.0726 90.9489 61.043Z" fill="#607EF5"/>
<path d="M170.987 77.7032C171.017 77.7032 171.046 77.6973 171.073 77.686C171.101 77.6747 171.126 77.658 171.147 77.6371C171.168 77.6161 171.184 77.5913 171.196 77.5639C171.207 77.5365 171.213 77.5072 171.213 77.4776V43.4129C171.213 43.353 171.189 43.2956 171.147 43.2533C171.104 43.211 171.047 43.1873 170.987 43.1873C170.927 43.1873 170.87 43.211 170.828 43.2533C170.785 43.2956 170.761 43.353 170.761 43.4129V77.4776C170.761 77.5072 170.767 77.5365 170.779 77.5639C170.79 77.5913 170.807 77.6161 170.828 77.6371C170.848 77.658 170.873 77.6747 170.901 77.686C170.928 77.6973 170.957 77.7032 170.987 77.7032V77.7032Z" fill="#607EF5"/>
<path d="M105.011 59.5146H99.3289C99.0164 59.5143 98.7144 59.4013 98.4785 59.1964C98.2426 58.9914 98.0885 58.7082 98.0446 58.3987C97.6938 55.817 97.6938 53.1996 98.0446 50.6178C98.088 50.3121 98.2389 50.0318 98.4703 49.8274C98.7017 49.6229 98.9984 49.5076 99.3071 49.5022C101.095 48.7008 103.02 48.7009 105.031 49.5021C105.218 49.5046 105.402 49.548 105.571 49.6293C105.739 49.7107 105.888 49.8279 106.007 49.9729C106.13 50.1237 106.219 50.3002 106.266 50.4894C106.313 50.6787 106.317 50.876 106.278 51.067C105.821 53.3385 105.821 55.678 106.278 57.9495C106.317 58.1405 106.313 58.3379 106.266 58.5271C106.219 58.7164 106.13 58.8928 106.007 59.0436C105.886 59.1912 105.734 59.31 105.562 59.3914C105.39 59.4729 105.202 59.5149 105.011 59.5146V59.5146Z" fill="#FAAA5F"/>
<path d="M104.416 52.4687H99.6334C99.5541 52.4687 99.4781 52.4372 99.422 52.3811C99.366 52.3251 99.3345 52.249 99.3345 52.1698C99.3345 52.0905 99.366 52.0145 99.422 51.9584C99.4781 51.9023 99.5541 51.8708 99.6334 51.8708H104.416C104.495 51.8708 104.571 51.9023 104.627 51.9584C104.683 52.0145 104.715 52.0905 104.715 52.1698C104.715 52.249 104.683 52.3251 104.627 52.3811C104.571 52.4372 104.495 52.4687 104.416 52.4687V52.4687Z" fill="white"/>
<path d="M104.416 54.8599H99.6334C99.5541 54.8599 99.4781 54.8284 99.422 54.7723C99.366 54.7163 99.3345 54.6403 99.3345 54.561C99.3345 54.4817 99.366 54.4057 99.422 54.3496C99.4781 54.2936 99.5541 54.2621 99.6334 54.2621H104.416C104.495 54.2621 104.571 54.2936 104.627 54.3496C104.683 54.4057 104.715 54.4817 104.715 54.561C104.715 54.6403 104.683 54.7163 104.627 54.7723C104.571 54.8284 104.495 54.8599 104.416 54.8599V54.8599Z" fill="white"/>
<path d="M104.416 57.251H99.6334C99.5541 57.251 99.4781 57.2195 99.422 57.1635C99.366 57.1074 99.3345 57.0314 99.3345 56.9521C99.3345 56.8728 99.366 56.7968 99.422 56.7407C99.4781 56.6847 99.5541 56.6532 99.6334 56.6532H104.416C104.495 56.6532 104.571 56.6847 104.627 56.7407C104.683 56.7968 104.715 56.8728 104.715 56.9521C104.715 57.0314 104.683 57.1074 104.627 57.1635C104.571 57.2195 104.495 57.251 104.416 57.251V57.251Z" fill="white"/>
<path d="M145.861 72.6663H140.179C139.866 72.6661 139.565 72.5531 139.329 72.3481C139.093 72.1431 138.939 71.8599 138.895 71.5505C138.544 68.9687 138.544 66.3513 138.895 63.7695C138.938 63.4638 139.089 63.1836 139.32 62.9791C139.552 62.7746 139.848 62.6593 140.157 62.6539C141.945 61.8526 143.87 61.8527 145.881 62.6538C146.068 62.6563 146.252 62.6997 146.421 62.7811C146.59 62.8624 146.738 62.9797 146.857 63.1246C146.981 63.2755 147.069 63.4519 147.116 63.6412C147.163 63.8304 147.167 64.0277 147.128 64.2188C146.671 66.4902 146.671 68.8298 147.128 71.1012C147.167 71.2923 147.163 71.4896 147.116 71.6789C147.069 71.8681 146.981 72.0446 146.857 72.1954C146.736 72.3429 146.584 72.4617 146.412 72.5432C146.24 72.6246 146.052 72.6667 145.861 72.6663Z" fill="#FAAA5F"/>
<path d="M145.266 65.6203H140.483C140.404 65.6203 140.328 65.5888 140.272 65.5327C140.216 65.4767 140.185 65.4006 140.185 65.3214C140.185 65.2421 140.216 65.1661 140.272 65.11C140.328 65.054 140.404 65.0225 140.483 65.0225H145.266C145.345 65.0225 145.421 65.054 145.477 65.11C145.533 65.1661 145.565 65.2421 145.565 65.3214C145.565 65.4006 145.533 65.4767 145.477 65.5327C145.421 65.5888 145.345 65.6203 145.266 65.6203Z" fill="white"/>
<path d="M145.266 68.0115H140.483C140.404 68.0115 140.328 67.98 140.272 67.924C140.216 67.8679 140.185 67.7919 140.185 67.7126C140.185 67.6333 140.216 67.5573 140.272 67.5012C140.328 67.4452 140.404 67.4137 140.483 67.4137H145.266C145.345 67.4137 145.421 67.4452 145.477 67.5012C145.533 67.5573 145.565 67.6333 145.565 67.7126C145.565 67.7919 145.533 67.8679 145.477 67.924C145.421 67.98 145.345 68.0115 145.266 68.0115Z" fill="white"/>
<path d="M163.197 59.5146H157.515C157.203 59.5143 156.901 59.4013 156.665 59.1964C156.429 58.9914 156.275 58.7082 156.231 58.3987C155.88 55.817 155.88 53.1996 156.231 50.6178C156.274 50.3121 156.425 50.0318 156.657 49.8274C156.888 49.6229 157.185 49.5076 157.493 49.5022C159.281 48.7008 161.207 48.7009 163.217 49.5021C163.404 49.5046 163.589 49.548 163.757 49.6293C163.926 49.7107 164.075 49.8279 164.193 49.9729C164.317 50.1237 164.405 50.3002 164.452 50.4894C164.499 50.6787 164.503 50.876 164.464 51.067C164.008 53.3385 164.008 55.678 164.464 57.9495C164.503 58.1405 164.499 58.3379 164.452 58.5271C164.405 58.7164 164.317 58.8928 164.193 59.0436C164.073 59.1912 163.921 59.31 163.748 59.3914C163.576 59.4729 163.388 59.5149 163.197 59.5146V59.5146Z" fill="#FD6584"/>
<path d="M162.602 54.8599H157.82C157.741 54.8599 157.665 54.8284 157.609 54.7723C157.552 54.7163 157.521 54.6403 157.521 54.561C157.521 54.4817 157.552 54.4057 157.609 54.3496C157.665 54.2936 157.741 54.2621 157.82 54.2621H162.602C162.682 54.2621 162.758 54.2936 162.814 54.3496C162.87 54.4057 162.901 54.4817 162.901 54.561C162.901 54.6403 162.87 54.7163 162.814 54.7723C162.758 54.8284 162.682 54.8599 162.602 54.8599Z" fill="white"/>
<path d="M162.602 57.251H157.82C157.741 57.251 157.665 57.2195 157.609 57.1635C157.552 57.1074 157.521 57.0314 157.521 56.9521C157.521 56.8728 157.552 56.7968 157.609 56.7407C157.665 56.6847 157.741 56.6532 157.82 56.6532H162.602C162.682 56.6532 162.758 56.6847 162.814 56.7407C162.87 56.7968 162.901 56.8728 162.901 56.9521C162.901 57.0314 162.87 57.1074 162.814 57.1635C162.758 57.2195 162.682 57.251 162.602 57.251Z" fill="white"/>
<path d="M67.2861 58.635C66.1556 56.9026 64.3097 55.5412 62.2541 55.4261C60.1983 55.3111 57.7278 57.0617 56.7132 58.8631C54.8573 62.158 54.833 65.9365 57.3891 68.2282C57.7362 68.1104 59.1801 67.9416 59.533 67.828L59.7568 67.4238L60.0329 67.6695C63.1918 67.9847 64.1642 65.8369 69.2188 64.4827C68.9232 62.4344 68.4166 60.3674 67.2861 58.635Z" fill="#2F2E41"/>
<path d="M62.9467 66.7948C65.2538 66.7948 67.1241 64.9246 67.1241 62.6174C67.1241 60.3103 65.2538 58.4401 62.9467 58.4401C60.6396 58.4401 58.7693 60.3103 58.7693 62.6174C58.7693 64.9246 60.6396 66.7948 62.9467 66.7948Z" fill="#FFB7B7"/>
<path d="M67.5755 70.3791L65.185 68.9448L60.404 68.4667L56.1783 70.6185L56.2207 77.192L58.9014 84.0098L69.3451 86.1623L70.5636 80.1707C70.5636 80.1707 73.6712 75.9967 70.3245 73.6063L67.5755 70.3791Z" fill="#FAAA5F"/>
<path d="M64.5085 56.2732C63.6034 56.0195 62.6467 56.0135 61.7384 56.2561C60.8302 56.4986 60.0038 56.9807 59.3457 57.6519C58.6875 58.3232 58.2218 59.1589 57.9972 60.0717C57.7726 60.9845 57.7973 61.941 58.0689 62.8409C60.6131 63.044 63.1279 62.8065 65.1104 61.0064L65.2868 59.4623L66.0101 60.7545C66.7397 60.5492 67.4704 60.3427 68.2022 60.1349C67.9784 59.2243 67.5194 58.3883 66.8712 57.7107C66.223 57.033 65.4083 56.5373 64.5085 56.2732V56.2732Z" fill="#2F2E41"/>
<path d="M57.3429 98.761C57.1157 98.6211 56.922 98.4331 56.7754 98.2103C56.6288 97.9874 56.5328 97.7351 56.4942 97.4711C56.4556 97.2072 56.4754 96.9379 56.5521 96.6824C56.6288 96.4269 56.7607 96.1914 56.9383 95.9923L55.3967 79.4437L59.3533 79.7493L59.6245 95.9199C59.9391 96.2405 60.1252 96.6653 60.1475 97.1139C60.1698 97.5625 60.0268 98.0037 59.7456 98.3539C59.4644 98.7041 59.0644 98.939 58.6216 99.014C58.1788 99.089 57.7238 98.999 57.3429 98.761H57.3429Z" fill="#FFB6B6"/>
<path d="M56.3249 70.6845C56.3249 70.6845 55.371 70.5449 55.4815 72.5844C55.57 74.2171 55.1496 84.2808 55.8679 86.4343C55.597 86.6012 55.3893 86.8534 55.2775 87.1513C55.1657 87.4493 55.1563 87.7759 55.2506 88.0798L59.8653 87.0962C60.4029 86.1722 60.2915 85.2234 59.9008 85.0696L59.9238 82.1164L60.9437 72.382L57.0162 70.7732L56.3249 70.6845Z" fill="#FAAA5F"/>
<path d="M79.9102 100.292C79.7867 100.141 79.6982 99.965 79.6514 99.7758C79.6045 99.5865 79.6004 99.3892 79.6394 99.1981C80.0958 96.9267 80.0958 94.5871 79.6394 92.3157C79.6004 92.1247 79.6045 91.9273 79.6514 91.7381C79.6982 91.5488 79.7867 91.3724 79.9102 91.2216C80.0288 91.0766 80.1776 90.9593 80.3462 90.878C80.5149 90.7967 80.6993 90.7532 80.8865 90.7507C82.8969 89.9496 84.8222 89.9495 86.61 90.7508C86.9187 90.7563 87.2154 90.8716 87.4468 91.076C87.6782 91.2805 87.8291 91.5607 87.8724 91.8665C88.2233 94.4482 88.2233 97.0656 87.8724 99.6474C87.8286 99.9568 87.6745 100.24 87.4386 100.445C87.2027 100.65 86.9007 100.763 86.5882 100.763H80.9061C80.7156 100.764 80.5273 100.722 80.3551 100.64C80.1828 100.559 80.0308 100.44 79.9102 100.292V100.292Z" fill="#FAAA5F"/>
<path d="M81.5012 93.7172H86.2836C86.3629 93.7172 86.4389 93.6857 86.495 93.6296C86.551 93.5736 86.5825 93.4976 86.5825 93.4183C86.5825 93.339 86.551 93.263 86.495 93.2069C86.4389 93.1509 86.3629 93.1194 86.2836 93.1194H81.5012C81.4219 93.1194 81.3459 93.1509 81.2898 93.2069C81.2338 93.263 81.2023 93.339 81.2023 93.4183C81.2023 93.4976 81.2338 93.5736 81.2898 93.6296C81.3459 93.6857 81.4219 93.7172 81.5012 93.7172V93.7172Z" fill="white"/>
<path d="M81.5012 96.1084H86.2836C86.3629 96.1084 86.4389 96.0769 86.495 96.0209C86.551 95.9648 86.5825 95.8888 86.5825 95.8095C86.5825 95.7302 86.551 95.6542 86.495 95.5982C86.4389 95.5421 86.3629 95.5106 86.2836 95.5106H81.5012C81.4219 95.5106 81.3459 95.5421 81.2898 95.5982C81.2338 95.6542 81.2023 95.7302 81.2023 95.8095C81.2023 95.8888 81.2338 95.9648 81.2898 96.0209C81.3459 96.0769 81.4219 96.1084 81.5012 96.1084V96.1084Z" fill="white"/>
<path d="M81.5012 98.4996H86.2836C86.3629 98.4996 86.4389 98.4681 86.495 98.4121C86.551 98.356 86.5825 98.28 86.5825 98.2007C86.5825 98.1214 86.551 98.0454 86.495 97.9893C86.4389 97.9333 86.3629 97.9018 86.2836 97.9018H81.5012C81.4219 97.9018 81.3459 97.9333 81.2898 97.9893C81.2338 98.0454 81.2023 98.1214 81.2023 98.2007C81.2023 98.28 81.2338 98.356 81.2898 98.4121C81.3459 98.4681 81.4219 98.4996 81.5012 98.4996V98.4996Z" fill="white"/>
<path d="M212.95 146.081H210.5L209.334 136.628L212.951 136.628L212.95 146.081Z" fill="#A0616A"/>
<path d="M213.575 148.457L205.673 148.457V148.357C205.673 147.541 205.997 146.759 206.574 146.182C207.151 145.605 207.933 145.281 208.749 145.281H208.749L210.192 144.186L212.886 145.281L213.576 145.281L213.575 148.457Z" fill="#2F2E41"/>
<path d="M201.564 146.081H199.113L197.948 136.628L201.565 136.628L201.564 146.081Z" fill="#A0616A"/>
<path d="M202.189 148.457L194.287 148.457V148.357C194.287 147.541 194.611 146.759 195.188 146.182C195.764 145.605 196.547 145.281 197.363 145.281H197.363L198.806 144.186L201.5 145.281L202.189 145.281L202.189 148.457Z" fill="#2F2E41"/>
<path d="M214.901 85.5573L211.661 95.5201L201.447 95.1853L204.586 85.5573H214.901Z" fill="#2F2E41"/>
<path d="M199.605 94.348L218.861 94.8504L218.526 104.227C218.526 104.227 218.861 106.739 218.191 107.409C217.522 108.079 217.187 108.079 217.522 109.251C217.857 110.423 216.087 112.337 216.302 112.552C216.517 112.767 217.019 113.939 217.019 113.939L215.345 123.483C215.345 123.483 214.173 140.061 213.838 140.395C213.503 140.73 213.168 140.395 213.503 141.233C213.838 142.07 214.173 141.735 213.838 142.07C213.541 142.39 213.262 142.725 213.001 143.075H208.952C208.952 143.075 208.647 141.4 208.647 141.233C208.647 141.065 208.312 140.061 208.312 139.893C208.312 139.726 208.608 139.43 208.608 139.43C208.711 139.089 208.78 138.74 208.815 138.386C208.815 138.051 209.819 125.158 209.819 125.158L207.81 108.413L202.954 124.823C202.954 124.823 202.954 139.223 202.619 139.558C202.284 139.893 202.284 139.726 202.452 140.395C202.619 141.065 203.289 140.898 202.787 141.4C202.284 141.902 202.117 141.065 202.284 141.902L202.452 142.74L197.428 142.812C197.428 142.812 196.759 141.4 197.093 140.898C197.428 140.395 197.408 140.533 197 139.711C196.591 138.888 196.424 138.721 196.591 138.554C196.759 138.386 196.759 137.495 196.759 137.495L197.596 121.474C197.596 121.474 197.763 104.562 197.763 104.06C197.776 103.801 197.728 103.543 197.624 103.307V102.625L198.266 100.209L199.605 94.348Z" fill="#2F2E41"/>
<path d="M201.363 69.9848L207.224 67.808L216.936 68.4778L219.184 69.5272C219.975 69.8963 220.619 70.5206 221.013 71.2998C221.406 72.079 221.526 72.9678 221.353 73.8234L218.443 88.2364L219.195 95.171C219.195 95.171 206.973 104.395 197.428 101.548C197.428 101.548 197.596 98.8691 197.763 97.8645C197.931 96.8598 198.266 96.8598 198.433 96.3574C198.6 95.8551 198.935 96.3574 198.6 95.3528C198.266 94.3481 201.28 87.3154 201.28 87.3154L201.363 69.9848Z" fill="#607EF5"/>
<path d="M210.627 71.2587L215.404 68.3721L213.838 65.5475H208.763L206.752 67.9832L210.627 71.2587Z" fill="#607EF5"/>
<path d="M212.271 94.9928C212.543 95.0085 212.816 94.9642 213.07 94.863C213.324 94.7618 213.553 94.6062 213.74 94.4071C213.928 94.2079 214.069 93.9702 214.154 93.7105C214.24 93.4508 214.267 93.1756 214.235 92.9042L220.21 89.9965L217.239 88.2364L212.021 91.2674C211.568 91.3522 211.163 91.5999 210.881 91.9636C210.599 92.3274 210.46 92.7819 210.491 93.2411C210.522 93.7003 210.72 94.1322 211.048 94.4551C211.376 94.7779 211.811 94.9692 212.271 94.9928V94.9928Z" fill="#A0616A"/>
<path d="M214.618 93.7857L213.577 89.9687L219.249 82.4535C217.413 80.2397 216.769 76.9708 217.222 72.1777C217.122 71.6608 217.221 71.125 217.5 70.6786C217.78 70.2321 218.218 69.9082 218.727 69.7722C219.235 69.6362 219.777 69.6983 220.242 69.9458C220.706 70.1933 221.06 70.608 221.231 71.106C222.515 74.8498 224.748 82.9067 224.457 83.3431C224.122 83.8456 224.007 84.0687 224.534 84.5486C225.158 85.1178 224.827 87.5432 224.542 87.8912C224.282 88.2082 214.618 93.7857 214.618 93.7857Z" fill="#607EF5"/>
<path d="M184.586 89.0643C184.841 89.163 185.114 89.2046 185.387 89.1862C185.66 89.1678 185.925 89.0898 186.164 88.9578C186.404 88.8257 186.611 88.6428 186.772 88.4218C186.933 88.2009 187.044 87.9474 187.096 87.6791L193.675 86.7446L191.387 84.158L185.491 85.4419C185.034 85.3838 184.572 85.4951 184.192 85.7548C183.812 86.0146 183.541 86.4046 183.429 86.8511C183.318 87.2976 183.374 87.7695 183.587 88.1774C183.8 88.5853 184.156 88.9009 184.586 89.0643Z" fill="#A0616A"/>
<path d="M187.409 88.5143L188.408 84.686L196.678 80.0265C197.276 76.2404 197.65 75.006 200.431 71.0756C200.601 70.5774 200.955 70.1624 201.419 69.9144C201.884 69.6664 202.425 69.6038 202.934 69.7393C203.443 69.8748 203.881 70.1983 204.161 70.6445C204.441 71.0907 204.541 71.6263 204.441 72.1434C203.689 76.029 200.287 86.4427 199.866 86.6024C199.483 86.7479 187.409 88.5143 187.409 88.5143Z" fill="#607EF5"/>
<path d="M211.243 63.7893C214.109 63.7893 216.433 61.4653 216.433 58.5985C216.433 55.7317 214.109 53.4077 211.243 53.4077C208.376 53.4077 206.052 55.7317 206.052 58.5985C206.052 61.4653 208.376 63.7893 211.243 63.7893Z" fill="#A0616A"/>
<path d="M205.746 54.833C205.884 53.5915 207.677 52.3501 210.849 51.5224C214.022 50.6948 215.677 54.2812 215.677 54.2812C217.884 55.3847 216.574 61.2471 215.884 60.6954C215.877 60.6898 215.87 60.6845 215.863 60.6792C215.414 60.348 215.036 59.9285 214.754 59.4465C214.472 58.9644 214.291 58.4299 214.222 57.8755L214.063 56.4469C213.337 57.0036 212.518 57.475 211.639 57.3349L212.715 56.2757C211.695 56.7193 210.676 57.163 209.656 57.6066L210.669 56.2133L210.621 56.1662C210.147 56.5659 209.603 56.8741 209.016 57.0749C208.347 57.2666 207.545 57.1629 207.087 56.6392C206.963 56.4946 206.87 56.3268 206.813 56.1457C205.98 56.7158 205.815 57.9366 205.815 57.9366C205.815 57.9366 205.608 56.0744 205.746 54.833Z" fill="#2F2E41"/>
<path d="M184.918 92.4354H179.236C178.923 92.4351 178.621 92.3222 178.385 92.1172C178.149 91.9122 177.995 91.629 177.951 91.3195C177.601 88.7378 177.601 86.1204 177.951 83.5386C177.995 83.2329 178.146 82.9527 178.377 82.7482C178.608 82.5437 178.905 82.4284 179.214 82.423C181.002 81.6217 182.927 81.6218 184.937 82.4229C185.125 82.4254 185.309 82.4688 185.478 82.5502C185.646 82.6315 185.795 82.7488 185.914 82.8937C186.037 83.0446 186.126 83.221 186.172 83.4103C186.219 83.5995 186.223 83.7968 186.184 83.9879C185.728 86.2593 185.728 88.5989 186.184 90.8703C186.223 91.0614 186.219 91.2587 186.172 91.4479C186.126 91.6372 186.037 91.8136 185.914 91.9644C185.793 92.112 185.641 92.2308 185.469 92.3122C185.297 92.3937 185.108 92.4358 184.918 92.4354V92.4354Z" fill="#3F3D56"/>
<path d="M184.323 85.3895H179.54C179.461 85.3895 179.385 85.358 179.329 85.3019C179.273 85.2459 179.241 85.1699 179.241 85.0906C179.241 85.0113 179.273 84.9353 179.329 84.8792C179.385 84.8232 179.461 84.7917 179.54 84.7917H184.323C184.402 84.7917 184.478 84.8232 184.534 84.8792C184.59 84.9353 184.621 85.0113 184.621 85.0906C184.621 85.1699 184.59 85.2459 184.534 85.3019C184.478 85.358 184.402 85.3895 184.323 85.3895V85.3895Z" fill="white"/>
<path d="M184.323 87.7807H179.54C179.461 87.7807 179.385 87.7492 179.329 87.6932C179.273 87.6371 179.241 87.5611 179.241 87.4818C179.241 87.4026 179.273 87.3265 179.329 87.2705C179.385 87.2144 179.461 87.1829 179.54 87.1829H184.323C184.402 87.1829 184.478 87.2144 184.534 87.2705C184.59 87.3265 184.621 87.4026 184.621 87.4818C184.621 87.5611 184.59 87.6371 184.534 87.6932C184.478 87.7492 184.402 87.7807 184.323 87.7807V87.7807Z" fill="white"/>
<path d="M184.323 90.1719H179.54C179.461 90.1719 179.385 90.1404 179.329 90.0844C179.273 90.0283 179.241 89.9523 179.241 89.873C179.241 89.7938 179.273 89.7178 179.329 89.6617C179.385 89.6056 179.461 89.5742 179.54 89.5742H184.323C184.402 89.5742 184.478 89.6056 184.534 89.6617C184.59 89.7178 184.621 89.7938 184.621 89.873C184.621 89.9523 184.59 90.0283 184.534 90.0844C184.478 90.1404 184.402 90.1719 184.323 90.1719V90.1719Z" fill="white"/>
<path d="M160.61 44.5152C162.701 44.5152 164.396 42.8201 164.396 40.7291C164.396 38.6381 162.701 36.943 160.61 36.943C158.519 36.943 156.824 38.6381 156.824 40.7291C156.824 42.8201 158.519 44.5152 160.61 44.5152Z" fill="#607EF5"/>
<path d="M162.554 39.1512C162.497 39.0968 162.421 39.0665 162.342 39.0665C162.264 39.0665 162.188 39.0968 162.131 39.1512C161.328 39.7919 160.606 40.5289 159.983 41.3457C159.83 41.0495 159.676 40.7533 159.523 40.4571C159.347 40.1152 158.831 40.4172 159.007 40.7588C159.231 41.1921 159.455 41.6253 159.679 42.0585C159.706 42.1028 159.744 42.1393 159.789 42.1647C159.834 42.19 159.885 42.2033 159.937 42.2033C159.989 42.2033 160.04 42.19 160.085 42.1647C160.13 42.1393 160.168 42.1028 160.195 42.0585C160.86 41.1227 161.654 40.2861 162.554 39.5739C162.609 39.5176 162.641 39.4417 162.641 39.3625C162.641 39.2834 162.609 39.2075 162.554 39.1512V39.1512Z" fill="white"/>
<path d="M142.078 44.5152C144.169 44.5152 145.864 42.8201 145.864 40.7291C145.864 38.6381 144.169 36.943 142.078 36.943C139.987 36.943 138.292 38.6381 138.292 40.7291C138.292 42.8201 139.987 44.5152 142.078 44.5152Z" fill="#607EF5"/>
<path d="M144.022 39.1512C143.965 39.0968 143.889 39.0665 143.81 39.0665C143.732 39.0665 143.656 39.0968 143.599 39.1512C142.796 39.7919 142.074 40.5289 141.451 41.3457C141.298 41.0495 141.144 40.7533 140.991 40.4571C140.815 40.1152 140.299 40.4172 140.475 40.7588C140.699 41.1921 140.923 41.6253 141.147 42.0585C141.174 42.1028 141.212 42.1393 141.257 42.1647C141.302 42.19 141.353 42.2033 141.405 42.2033C141.457 42.2033 141.508 42.19 141.553 42.1647C141.598 42.1393 141.636 42.1028 141.663 42.0585C142.328 41.1227 143.122 40.2861 144.022 39.5739C144.077 39.5176 144.109 39.4417 144.109 39.3625C144.109 39.2834 144.077 39.2075 144.022 39.1512V39.1512Z" fill="white"/>
<path d="M103.022 44.1166C105.113 44.1166 106.808 42.4215 106.808 40.3305C106.808 38.2395 105.113 36.5444 103.022 36.5444C100.931 36.5444 99.2355 38.2395 99.2355 40.3305C99.2355 42.4215 100.931 44.1166 103.022 44.1166Z" fill="#607EF5"/>
<path d="M104.965 38.7526C104.908 38.6983 104.833 38.668 104.754 38.668C104.675 38.668 104.599 38.6983 104.542 38.7526C103.739 39.3933 103.018 40.1304 102.394 40.9471C102.241 40.6509 102.088 40.3547 101.935 40.0585C101.758 39.7167 101.242 40.0187 101.419 40.3603C101.642 40.7935 101.866 41.2267 102.09 41.66C102.117 41.7042 102.155 41.7407 102.2 41.7661C102.246 41.7915 102.297 41.8048 102.348 41.8048C102.4 41.8048 102.451 41.7915 102.496 41.7661C102.542 41.7407 102.579 41.7042 102.606 41.66C103.271 40.7241 104.065 39.8875 104.965 39.1753C105.021 39.119 105.052 39.0431 105.052 38.964C105.052 38.8848 105.021 38.8089 104.965 38.7526V38.7526Z" fill="white"/>
<path d="M57.7876 59.6596C59.2183 59.6596 60.3781 58.4998 60.3781 57.0691C60.3781 55.6384 59.2183 54.4786 57.7876 54.4786C56.3569 54.4786 55.1971 55.6384 55.1971 57.0691C55.1971 58.4998 56.3569 59.6596 57.7876 59.6596Z" fill="#2F2E41"/>
<path d="M87.3273 148.386C87.3274 148.417 87.3213 148.448 87.3094 148.477C87.2975 148.506 87.2801 148.532 87.258 148.554C87.236 148.576 87.2098 148.593 87.181 148.605C87.1522 148.617 87.1213 148.623 87.0901 148.623H31.2371C31.1742 148.623 31.1139 148.598 31.0695 148.554C31.025 148.509 31 148.449 31 148.386C31 148.323 31.025 148.263 31.0695 148.218C31.1139 148.174 31.1742 148.149 31.2371 148.149H87.0901C87.1213 148.149 87.1522 148.155 87.181 148.167C87.2098 148.179 87.236 148.196 87.258 148.218C87.28 148.24 87.2975 148.266 87.3094 148.295C87.3213 148.324 87.3274 148.355 87.3273 148.386V148.386Z" fill="#CCCCCC"/>
<path d="M231 148.386C231 148.417 230.994 148.448 230.982 148.477C230.97 148.506 230.953 148.532 230.931 148.554C230.909 148.576 230.883 148.593 230.854 148.605C230.825 148.617 230.794 148.623 230.763 148.623H174.91C174.847 148.623 174.787 148.598 174.742 148.554C174.698 148.509 174.673 148.449 174.673 148.386C174.673 148.323 174.698 148.263 174.742 148.218C174.787 148.174 174.847 148.149 174.91 148.149H230.763C230.794 148.149 230.825 148.155 230.854 148.167C230.883 148.179 230.909 148.196 230.931 148.218C230.953 148.24 230.97 148.266 230.982 148.295C230.994 148.324 231 148.355 231 148.386V148.386Z" fill="#CCCCCC"/>
<path d="M57.0074 54.4708C56.559 54.3461 56.0926 54.5549 55.6741 54.7586L54.1854 55.4831C55.216 55.5735 56.2466 55.6639 57.2772 55.7544L57.3911 55.5401C57.7478 55.2411 57.4558 54.5955 57.0074 54.4708Z" fill="#2F2E41"/>
</g>
<defs>
<clipPath id="clip0_1378:4159">
<rect width="200" height="118.623" fill="white" transform="translate(31 30)"/>
</clipPath>
</defs>
</svg>
