<svg width="25" height="25" viewBox="0 0 25 25" fill="none" xmlns="http://www.w3.org/2000/svg">
<path fill-rule="evenodd" clip-rule="evenodd" d="M16 12C18.21 12 20 10.21 20 8C20 5.79 18.21 4 16 4C13.79 4 12 5.79 12 8C12 10.21 13.79 12 16 12ZM7 10V8C7 7.45 6.55 7 6 7C5.45 7 5 7.45 5 8V10H3C2.45 10 2 10.45 2 11C2 11.55 2.45 12 3 12H5V14C5 14.55 5.45 15 6 15C6.55 15 7 14.55 7 14V12H9C9.55 12 10 11.55 10 11C10 10.45 9.55 10 9 10H7ZM8 18C8 15.34 13.33 14 16 14C18.67 14 24 15.34 24 18V19C24 19.55 23.55 20 23 20H9C8.45 20 8 19.55 8 19V18Z" fill="#FAAA5F"/>
</svg>
