<svg width="40" height="40" viewBox="0 0 40 40" fill="none" xmlns="http://www.w3.org/2000/svg">
<rect width="40" height="40" rx="4" fill="white"/>
<path d="M21.8745 29.6866L20.7905 30.7706C20.3315 31.2296 19.5894 31.2296 19.1353 30.7706L9.64307 21.2833C9.18408 20.8243 9.18408 20.0821 9.64307 19.628L19.1353 10.1358C19.5942 9.67682 20.3364 9.67682 20.7905 10.1358L21.8745 11.2198C22.3384 11.6837 22.3286 12.4405 21.855 12.8946L15.9712 18.5001H30.0044C30.6538 18.5001 31.1763 19.0225 31.1763 19.6719V21.2344C31.1763 21.8839 30.6538 22.4063 30.0044 22.4063H15.9712L21.855 28.0118C22.3335 28.4659 22.3433 29.2227 21.8745 29.6866Z" fill="#607EF5"/>
</svg>
