<svg width="29" height="29" viewBox="0 0 29 29" fill="none" xmlns="http://www.w3.org/2000/svg">
<g clip-path="url(#clip0_1417:4015)">
<path d="M17.9164 4.7778V13.1389H6.17506L4.77756 14.5364V4.7778H17.9164ZM19.1109 2.38892H3.58312C2.92617 2.38892 2.38867 2.92642 2.38867 3.58336V20.3056L7.16645 15.5278H19.1109C19.7678 15.5278 20.3053 14.9903 20.3053 14.3334V3.58336C20.3053 2.92642 19.7678 2.38892 19.1109 2.38892ZM25.0831 7.16669H22.6942V17.9167H7.16645V20.3056C7.16645 20.9625 7.70395 21.5 8.36089 21.5H21.4998L26.2776 26.2778V8.36114C26.2776 7.70419 25.7401 7.16669 25.0831 7.16669Z" fill="#5F5F5F"/>
</g>
<defs>
<clipPath id="clip0_1417:4015">
<rect width="28.6667" height="28.6667" fill="white"/>
</clipPath>
</defs>
</svg>
