<svg width="40" height="40" viewBox="0 0 40 40" fill="none" xmlns="http://www.w3.org/2000/svg">
<rect width="40" height="40" rx="4" fill="white"/>
<path fill-rule="evenodd" clip-rule="evenodd" d="M23.1253 20C25.4274 20 27.292 18.1354 27.292 15.8333C27.292 13.5312 25.4274 11.6667 23.1253 11.6667C20.8232 11.6667 18.9587 13.5312 18.9587 15.8333C18.9587 18.1354 20.8232 20 23.1253 20ZM13.7503 17.9167V15.8333C13.7503 15.2604 13.2816 14.7917 12.7087 14.7917C12.1357 14.7917 11.667 15.2604 11.667 15.8333V17.9167H9.58366C9.01074 17.9167 8.54199 18.3854 8.54199 18.9583C8.54199 19.5312 9.01074 20 9.58366 20H11.667V22.0833C11.667 22.6562 12.1357 23.125 12.7087 23.125C13.2816 23.125 13.7503 22.6562 13.7503 22.0833V20H15.8337C16.4066 20 16.8753 19.5312 16.8753 18.9583C16.8753 18.3854 16.4066 17.9167 15.8337 17.9167H13.7503ZM14.792 26.25C14.792 23.4792 20.3441 22.0833 23.1253 22.0833C25.9066 22.0833 31.4587 23.4792 31.4587 26.25V27.2917C31.4587 27.8646 30.9899 28.3333 30.417 28.3333H15.8337C15.2607 28.3333 14.792 27.8646 14.792 27.2917V26.25Z" fill="#607EF5"/>
<path d="M29.375 13.75C31.1016 13.75 32.5 12.3516 32.5 10.625C32.5 8.89844 31.1016 7.5 29.375 7.5C27.6484 7.5 26.25 8.89844 26.25 10.625C26.25 12.3516 27.6484 13.75 29.375 13.75Z" fill="#FA5757"/>
</svg>
