<svg width="128" height="41" viewBox="0 0 128 41" fill="none" xmlns="http://www.w3.org/2000/svg">
<rect x="17.5271" y="12.9147" width="7.37981" height="17.527" rx="3.6899" transform="rotate(90 17.5271 12.9147)" fill="#FAAA5F"/>
<path fill-rule="evenodd" clip-rule="evenodd" d="M7.82182 7.34339H8.35428L8.69657 7.6873L7.21346 7.6873L7.1613 7.63321C7.14004 7.65144 7.1186 7.66947 7.09698 7.6873H3.84365C1.72086 7.6873 -9.27903e-08 5.96644 0 3.84365C6.83213e-09 3.6873 0.00933462 3.53314 0.0274769 3.38168C0.388964 1.70773 1.70849 0.388471 3.38258 0.0273693C3.53375 0.00929771 3.68762 0 3.84365 0H5.10644C6.88336 0.322696 8.32757 1.76977 8.63061 3.56228C8.80396 4.59724 8.60707 5.58592 8.15081 6.41456C8.05276 6.59263 7.94273 6.76332 7.82182 6.92548L7.79875 6.95614C7.74555 7.02622 7.6903 7.09468 7.6331 7.16141L7.82182 7.34339ZM7.4074 0C8.51487 0.799773 9.31125 2.01619 9.54646 3.40744L9.54669 3.40884C9.74624 4.60026 9.53888 5.74401 9.04151 6.71719L10.0071 7.6873L19.2183 7.6873C21.341 7.6873 23.0619 5.96644 23.0619 3.84365C23.0619 1.72086 21.341 0 19.2182 0H7.4074ZM4.3105 6.41468C3.14523 6.41468 2.20636 5.4758 2.20636 4.31053C2.20636 3.14527 3.14523 2.20639 4.3105 2.20639C5.47576 2.20639 6.41464 3.14527 6.41464 4.31053C6.41464 5.4758 5.47576 6.41468 4.3105 6.41468ZM1.27752 4.31053C1.27752 5.98878 2.63225 7.34352 4.3105 7.34352C5.98875 7.34352 7.34348 5.98878 7.34348 4.31053C7.34348 2.63229 5.98875 1.27755 4.3105 1.27755C2.63225 1.27755 1.27752 2.63229 1.27752 4.31053Z" fill="#607EF5"/>
<path fill-rule="evenodd" clip-rule="evenodd" d="M7.37981 8.3908V3.69003C7.37981 1.65215 5.72778 0.00012207 3.6899 0.00012207C3.6233 0.00012207 3.55711 0.00188663 3.49138 0.00537155C1.72888 0.338796 0.338295 1.72961 0.00521086 3.49223C0.00175152 3.55772 0 3.62367 0 3.69002V5.10655C0.322696 6.88347 1.76977 8.32767 3.56228 8.63072C4.59724 8.80407 5.58592 8.60718 6.41456 8.15092C6.59263 8.05287 6.76332 7.94284 6.92548 7.82193L6.95614 7.79886C7.02622 7.74566 7.09468 7.69041 7.16141 7.63321L7.34339 7.82193V8.35439L7.37981 8.3908ZM7.37981 9.70438L6.7171 9.04167C5.74394 9.539 4.60022 9.74634 3.40885 9.5468L3.40744 9.54657C2.01619 9.31136 0.799773 8.51498 0 7.40751V27.6744C0 29.7123 1.65203 31.3643 3.6899 31.3643C5.72778 31.3643 7.37981 29.7123 7.37981 27.6744V9.70438ZM4.31061 6.41468C3.14534 6.41468 2.20647 5.4758 2.20647 4.31053C2.20647 3.14527 3.14534 2.20639 4.31061 2.20639C5.47588 2.20639 6.41475 3.14527 6.41475 4.31053C6.41475 5.4758 5.47588 6.41468 4.31061 6.41468ZM1.27763 4.31053C1.27763 5.98878 2.63236 7.34352 4.31061 7.34352C5.98886 7.34352 7.34359 5.98878 7.34359 4.31053C7.34359 2.63229 5.98886 1.27755 4.31061 1.27755C2.63236 1.27755 1.27763 2.63229 1.27763 4.31053Z" fill="#607EF5"/>
<path d="M26.9428 12.0113H32.7067V31.3642H26.9428V12.0113ZM32.8976 2.92645V8.3468H26.752V2.92645H32.8976Z" fill="#607EF5"/>
<path d="M49.3652 11.515C53.9458 11.515 56.2361 14.2252 56.2361 19.6455V31.3642H50.4722V19.9127C50.4722 18.564 50.2177 17.5843 49.7088 16.9735C49.2253 16.3373 48.4491 16.0193 47.3803 16.0193C46.1079 16.0193 45.09 16.4264 44.3266 17.2407C43.5632 18.0551 43.1815 19.1493 43.1815 20.5235V31.3642H37.4176V17.5461C37.4176 15.4849 37.3158 13.6399 37.1122 12.0113H42.5326L42.9143 15.065C43.6014 13.9198 44.492 13.0419 45.5863 12.4311C46.706 11.8204 47.9656 11.515 49.3652 11.515Z" fill="#607EF5"/>
<path d="M80.2185 3.27V31.3642H74.5309V28.5013C73.9456 29.4938 73.1186 30.2699 72.0498 30.8298C70.981 31.3896 69.7722 31.6695 68.4235 31.6695C66.7694 31.6695 65.2935 31.2496 63.9956 30.4099C62.6978 29.5447 61.6799 28.3486 60.9419 26.8218C60.2294 25.2695 59.8731 23.5008 59.8731 21.5159C59.8731 19.531 60.2294 17.7879 60.9419 16.2865C61.6799 14.7596 62.6851 13.589 63.9575 12.7747C65.2553 11.9349 66.744 11.515 68.4235 11.515C69.7213 11.515 70.9047 11.7949 71.9735 12.3548C73.0423 12.8892 73.8693 13.6399 74.4546 14.6069V3.27H80.2185ZM70.1031 27.2798C71.5281 27.2798 72.6224 26.7963 73.3858 25.8293C74.1492 24.8368 74.5309 23.4245 74.5309 21.5923C74.5309 19.7855 74.1365 18.3986 73.3476 17.4316C72.5842 16.4391 71.5027 15.9429 70.1031 15.9429C68.678 15.9429 67.571 16.4264 66.7821 17.3934C65.9933 18.3604 65.5988 19.7346 65.5988 21.5159C65.5988 23.3482 65.9933 24.7732 66.7821 25.7911C67.571 26.7836 68.678 27.2798 70.1031 27.2798Z" fill="#607EF5"/>
<path d="M104.262 3.27V31.3642H98.5745V28.5013C97.9892 29.4938 97.1621 30.2699 96.0933 30.8298C95.0245 31.3896 93.8158 31.6695 92.467 31.6695C90.8129 31.6695 89.337 31.2496 88.0392 30.4099C86.7413 29.5447 85.7234 28.3486 84.9854 26.8218C84.2729 25.2695 83.9166 23.5008 83.9166 21.5159C83.9166 19.531 84.2729 17.7879 84.9854 16.2865C85.7234 14.7596 86.7286 13.589 88.001 12.7747C89.2988 11.9349 90.7875 11.515 92.467 11.515C93.7649 11.515 94.9482 11.7949 96.017 12.3548C97.0858 12.8892 97.9128 13.6399 98.4981 14.6069V3.27H104.262ZM94.1466 27.2798C95.5716 27.2798 96.6659 26.7963 97.4293 25.8293C98.1927 24.8368 98.5745 23.4245 98.5745 21.5923C98.5745 19.7855 98.18 18.3986 97.3912 17.4316C96.6277 16.4391 95.5462 15.9429 94.1466 15.9429C92.7215 15.9429 91.6145 16.4264 90.8257 17.3934C90.0368 18.3604 89.6424 19.7346 89.6424 21.5159C89.6424 23.3482 90.0368 24.7732 90.8257 25.7911C91.6145 26.7836 92.7215 27.2798 94.1466 27.2798Z" fill="#607EF5"/>
<path d="M128 12.0113L119.068 32.3948C117.974 34.8632 116.587 36.67 114.907 37.8151C113.253 38.9857 111.217 39.7364 108.8 40.0672L107.464 35.6394C109.245 35.2576 110.581 34.7741 111.472 34.1888C112.388 33.6036 113.101 32.7511 113.61 31.6314L114.182 30.3717L106.204 12.0113H112.235L117.198 24.5696L122.313 12.0113H128Z" fill="#607EF5"/>
<path fill-rule="evenodd" clip-rule="evenodd" d="M7.89291 7.41438H8.42537L11.2831 10.2856C11.5594 10.5619 11.5594 11.0135 11.2831 11.2899C11.0068 11.5662 10.5552 11.5662 10.2789 11.2899L7.41438 8.42537V7.89291L7.2324 7.70419C6.2888 8.51299 5.00147 8.93087 3.63326 8.70171C1.75955 8.38493 0.26328 6.82126 0.0341214 4.93407C-0.316356 2.08307 2.08307 -0.316356 4.93407 0.0341214C6.82126 0.26328 8.38493 1.75955 8.70171 3.63326C8.93087 5.00147 8.51299 6.2888 7.70419 7.2324L7.89291 7.41438ZM1.34861 4.38152C1.34861 6.05977 2.70334 7.4145 4.38159 7.4145C6.05984 7.4145 7.41457 6.05977 7.41457 4.38152C7.41457 2.70327 6.05984 1.34854 4.38159 1.34854C2.70334 1.34854 1.34861 2.70327 1.34861 4.38152Z" fill="#FAAA5F"/>
</svg>
