<svg width="37" height="37" viewBox="0 0 37 37" fill="none" xmlns="http://www.w3.org/2000/svg">
<rect x="24.5271" y="15.9147" width="7.37981" height="17.527" rx="3.6899" transform="rotate(90 24.5271 15.9147)" fill="#FAAA5F"/>
<path fill-rule="evenodd" clip-rule="evenodd" d="M14.8218 10.3434H15.3543L15.6966 10.6873L14.2135 10.6873L14.1613 10.6332C14.14 10.6514 14.1186 10.6695 14.097 10.6873H10.8437C8.72086 10.6873 7 8.96644 7 6.84365C7 6.6873 7.00933 6.53314 7.02748 6.38168C7.38896 4.70773 8.70849 3.38847 10.3826 3.02737C10.5338 3.0093 10.6876 3 10.8437 3H12.1064C13.8834 3.3227 15.3276 4.76977 15.6306 6.56228C15.804 7.59724 15.6071 8.58592 15.1508 9.41456C15.0528 9.59263 14.9427 9.76332 14.8218 9.92548L14.7987 9.95614C14.7455 10.0262 14.6903 10.0947 14.6331 10.1614L14.8218 10.3434ZM14.4074 3C15.5149 3.79977 16.3112 5.01619 16.5465 6.40744L16.5467 6.40884C16.7462 7.60026 16.5389 8.74401 16.0415 9.71719L17.0071 10.6873L26.2183 10.6873C28.341 10.6873 30.0619 8.96644 30.0619 6.84365C30.0619 4.72086 28.341 3 26.2182 3H14.4074ZM11.3105 9.41468C10.1452 9.41468 9.20636 8.4758 9.20636 7.31053C9.20636 6.14527 10.1452 5.20639 11.3105 5.20639C12.4758 5.20639 13.4146 6.14527 13.4146 7.31053C13.4146 8.4758 12.4758 9.41468 11.3105 9.41468ZM8.27752 7.31053C8.27752 8.98878 9.63225 10.3435 11.3105 10.3435C12.9887 10.3435 14.3435 8.98878 14.3435 7.31053C14.3435 5.63229 12.9887 4.27755 11.3105 4.27755C9.63225 4.27755 8.27752 5.63229 8.27752 7.31053Z" fill="#607EF5"/>
<path fill-rule="evenodd" clip-rule="evenodd" d="M14.3798 11.3908V6.69003C14.3798 4.65215 12.7278 3.00012 10.6899 3.00012C10.6233 3.00012 10.5571 3.00189 10.4914 3.00537C8.72888 3.3388 7.33829 4.72961 7.00521 6.49223C7.00175 6.55772 7 6.62367 7 6.69002V8.10655C7.3227 9.88347 8.76977 11.3277 10.5623 11.6307C11.5972 11.8041 12.5859 11.6072 13.4146 11.1509C13.5926 11.0529 13.7633 10.9428 13.9255 10.8219L13.9561 10.7989C14.0262 10.7457 14.0947 10.6904 14.1614 10.6332L14.3434 10.8219V11.3544L14.3798 11.3908ZM14.3798 12.7044L13.7171 12.0417C12.7439 12.539 11.6002 12.7463 10.4088 12.5468L10.4074 12.5466C9.01619 12.3114 7.79977 11.515 7 10.4075V30.6744C7 32.7123 8.65203 34.3643 10.6899 34.3643C12.7278 34.3643 14.3798 32.7123 14.3798 30.6744V12.7044ZM11.3106 9.41468C10.1453 9.41468 9.20647 8.4758 9.20647 7.31053C9.20647 6.14527 10.1453 5.20639 11.3106 5.20639C12.4759 5.20639 13.4148 6.14527 13.4148 7.31053C13.4148 8.4758 12.4759 9.41468 11.3106 9.41468ZM8.27763 7.31053C8.27763 8.98878 9.63236 10.3435 11.3106 10.3435C12.9889 10.3435 14.3436 8.98878 14.3436 7.31053C14.3436 5.63229 12.9889 4.27755 11.3106 4.27755C9.63236 4.27755 8.27763 5.63229 8.27763 7.31053Z" fill="#607EF5"/>
<path fill-rule="evenodd" clip-rule="evenodd" d="M14.8929 10.4144H15.4254L18.2831 13.2856C18.5594 13.5619 18.5594 14.0135 18.2831 14.2899C18.0068 14.5662 17.5552 14.5662 17.2789 14.2899L14.4144 11.4254V10.8929L14.2324 10.7042C13.2888 11.513 12.0015 11.9309 10.6333 11.7017C8.75955 11.3849 7.26328 9.82126 7.03412 7.93407C6.68364 5.08307 9.08307 2.68364 11.9341 3.03412C13.8213 3.26328 15.3849 4.75955 15.7017 6.63326C15.9309 8.00147 15.513 9.2888 14.7042 10.2324L14.8929 10.4144ZM8.34861 7.38152C8.34861 9.05977 9.70334 10.4145 11.3816 10.4145C13.0598 10.4145 14.4146 9.05977 14.4146 7.38152C14.4146 5.70327 13.0598 4.34854 11.3816 4.34854C9.70334 4.34854 8.34861 5.70327 8.34861 7.38152Z" fill="#FAAA5F"/>
</svg>
